<svg xmlns="http://www.w3.org/2000/svg" aria-hidden="true" style="position:absolute;width:0;height:0;overflow:hidden">
<defs>
  <symbol id="back3" viewBox="0 0 30 32">
    <path d="m7.542 21.161-5.764 9.82.28.484.284.477 10.991-18.725 10.991 18.725.564-.961-5.769-9.828c-3.169-5.398-5.773-9.82-5.787-9.82s-2.618 4.422-5.791 9.828z"/><path d="M7.531 12.839 0 25.668l.366.633.372.623 14.36-24.463 14.36 24.463.737-1.256-7.537-12.839C18.518 5.776 15.116 0 15.098 0s-3.42 5.777-7.566 12.839z"/><path d="m11.816 20.871-5.594 9.53.272.47.276.463 10.667-18.172 10.667 18.172.548-.933-5.598-9.537c-3.075-5.239-5.603-9.53-5.616-9.53s-2.541 4.291-5.62 9.537z"/>
    </symbol>
</defs>
</svg>