<svg aria-hidden="true" style="position:absolute;width:0;height:0;overflow:hidden" xmlns="http://www.w3.org/2000/svg">
  <defs>
    <symbol id="telegram" viewBox="0 0 35 32">
      <path d="M17.594 9.257c-6.86 2.685-12.536 4.935-12.616 4.996-.484.362-.515 1.122-.061 1.545.08.074 1.434.662 3.016 1.3 1.575.638 2.875 1.171 2.887 1.183s.644 1.729 1.404 3.819c.864 2.36 1.441 3.85 1.526 3.942.282.306.846.411 1.208.227.098-.055.907-.785 1.79-1.631.889-.846 1.643-1.551 1.68-1.569.037-.012 1.625 1.085 3.525 2.44 3.427 2.452 3.457 2.471 3.795 2.495.368.025.638-.104.877-.423.178-.245 4.714-21.836 4.684-22.308-.031-.552-.423-.926-.969-.913-.202.006-3.366 1.22-12.745 4.898zM30.59 5.088c.067.067.123.166.123.221 0 .153-4.53 21.744-4.598 21.891-.067.166-.313.239-.49.141-.166-.086-10.55-7.528-10.642-7.62-.055-.055 1.146-1.159 4.904-4.518 4.782-4.273 4.972-4.451 4.972-4.659 0-.172-.031-.221-.159-.264-.159-.061-1.042.423-11.629 6.277-1.085.607-1.992 1.097-2.011 1.097-.123 0-5.707-2.305-5.775-2.379a.401.401 0 0 1-.018-.429c.025-.049 2.225-.938 4.886-1.98s6.149-2.415 7.749-3.041c1.6-.625 5.039-1.98 7.632-2.998 2.599-1.024 4.769-1.857 4.831-1.857.055-.006.159.049.227.116zm-8.552 7.35c-.067.061-1.821 1.625-3.893 3.47s-3.838 3.427-3.923 3.506l-.153.141-.031 2.795-.031 2.789-1.269-3.482a227.882 227.882 0 0 1-1.257-3.488c.031-.037 10.618-5.848 10.648-5.848.012 0-.025.049-.092.116zm-5.682 9.079a42.921 42.921 0 0 1 1.514 1.103c.031.049-2.979 2.949-3.102 2.992-.031.012-.055-1.128-.055-2.624 0-2.115.018-2.636.08-2.593.037.037.742.539 1.563 1.122z"/>
    </symbol>
    <symbol id="instagram" viewBox="0 0 32 32">
      <path stroke-linejoin="round" stroke-width="1.333" d="M4.082 9.66c.062-1.363.276-2.242.564-2.987l.004-.01a5.578 5.578 0 0 1 1.313-2.015l.008-.008.008-.008A5.567 5.567 0 0 1 7.994 3.32l.013-.005c.744-.289 1.621-.502 2.985-.564M4.082 9.66C4.016 11.116 4 11.567 4 15.342s.016 4.226.082 5.682m0-11.364v.367m.57 13.995a5.58 5.58 0 0 0 1.312 2.015l.008.008.008.008a5.578 5.578 0 0 0 2.015 1.313l.011.004c.745.289 1.623.502 2.986.564m-6.34-3.912-.005-.013c-.289-.744-.502-1.621-.564-2.985m.569 2.998-.017-.09m-.553-2.908.022.118m-.022-.118v-.368m.552 3.276-.53-2.791m.53 2.791c-.225-.595-.457-1.424-.53-2.791m.53 2.791.024.062a5.564 5.564 0 0 0 1.324 2.04 5.548 5.548 0 0 0 2.039 1.324c.617.24 1.487.492 2.971.56 1.497.068 1.96.082 5.683.082s4.186-.014 5.683-.082c1.485-.068 2.354-.321 2.969-.559a5.538 5.538 0 0 0 2.04-1.325 5.56 5.56 0 0 0 1.324-2.039c.24-.617.492-1.487.56-2.971.068-1.497.082-1.961.082-5.683s-.014-4.186-.082-5.683c-.068-1.493-.323-2.363-.563-2.979a5.553 5.553 0 0 0-1.321-2.032 5.569 5.569 0 0 0-2.029-1.32c-.618-.242-1.489-.495-2.979-.563l-.369-.017M4.105 21.142l-.006-.117-.017-.369m6.911-17.907c1.456-.066 1.907-.082 5.682-.082s4.226.017 5.682.082m-11.364 0h.368m10.996 0h-.367m.367 0c1.363.062 2.242.276 2.988.564l.01.004A5.578 5.578 0 0 1 27.37 4.63l.008.008.008.008a5.558 5.558 0 0 1 1.312 2.016l.005.013c.289.744.502 1.621.564 2.985M11.361 2.749H21.99m-10.629 0c1.233-.054 1.915-.066 5.314-.066s4.081.012 5.315.066m-10.629 0-.369.017c-1.485.068-2.354.321-2.969.559a5.546 5.546 0 0 0-2.047 1.331 5.557 5.557 0 0 0-1.314 2.023c-.242.618-.495 1.489-.563 2.98l-.016.368m25.185 10.997c-.062 1.364-.275 2.241-.564 2.986l-.004.011a5.578 5.578 0 0 1-1.313 2.015l-.008.008-.008.008a5.58 5.58 0 0 1-2.015 1.312l-.013.005c-.744.289-1.621.502-2.985.564M4.082 20.656c-.054-1.233-.066-1.915-.066-5.314 0-3.401.012-4.081.066-5.315m0 10.629V10.027m10.339 10.757a5.893 5.893 0 0 0 8.145-5.442 5.888 5.888 0 0 0-10.056-4.166 5.887 5.887 0 0 0 0 8.33 5.887 5.887 0 0 0 1.911 1.277zm-1.925-9.621a5.91 5.91 0 1 1 8.358 8.358 5.91 5.91 0 0 1-8.358-8.358zm13.416-3.107a1.69 1.69 0 1 1-3.382.001 1.69 1.69 0 0 1 3.382-.001z"/>
    </symbol>
    <symbol id="phone" viewBox="0 0 32 32">
      <path stroke-linejoin="round" stroke-linecap="round" stroke-width="1.333" d="m29.561 21.84-2.589-2.587a3.657 3.657 0 0 0-5.17 0l-1.293 1.293a3.643 3.643 0 0 1-2.585 1.071 3.638 3.638 0 0 1-2.585-1.071l-3.878-3.883a3.662 3.662 0 0 1 0-5.174l1.291-1.293a3.662 3.662 0 0 0 0-5.174l-2.583-2.587a3.373 3.373 0 0 0-4.011-.888 3.373 3.373 0 0 0-1.159.888c-6.8 6.752-3.591 14.551 3.205 21.348 6.794 6.797 14.588 10.013 21.353 3.239a3.372 3.372 0 0 0 1.211-2.591c0-.494-.108-.982-.318-1.43a3.367 3.367 0 0 0-.891-1.161z"/>
      <symbol id="back3" viewBox="0 0 30 32">
    <path d="m7.542 21.161-5.764 9.82.28.484.284.477 10.991-18.725 10.991 18.725.564-.961-5.769-9.828c-3.169-5.398-5.773-9.82-5.787-9.82s-2.618 4.422-5.791 9.828z"/><path d="M7.531 12.839 0 25.668l.366.633.372.623 14.36-24.463 14.36 24.463.737-1.256-7.537-12.839C18.518 5.776 15.116 0 15.098 0s-3.42 5.777-7.566 12.839z"/><path d="m11.816 20.871-5.594 9.53.272.47.276.463 10.667-18.172 10.667 18.172.548-.933-5.598-9.537c-3.075-5.239-5.603-9.53-5.616-9.53s-2.541 4.291-5.62 9.537z"/>
    </symbol>
  </defs>
</svg>