<svg width="1438" height="482" viewBox="0 0 1438 482" fill="none" xmlns="http://www.w3.org/2000/svg">
<g opacity="0.05">
<mask id="path-1-inside-1_45539_245" fill="white">
<path fill-rule="evenodd" clip-rule="evenodd" d="M1435.09 265.929C1413.04 297.961 1390.99 329.992 1368.94 362.024C1355.92 357.349 1342.24 355.989 1327.88 357.943C1243.14 403.979 1156.37 445.062 1067.56 481.187C1001.76 464.201 937.139 445.793 873.699 425.955C854.131 414.931 834.564 403.908 814.996 392.884C787.021 362.784 756.672 334.045 723.946 306.662C707.309 291.776 710.601 280.93 733.817 274.118C745.345 274.358 755.952 277.158 765.636 282.518C806.957 316.206 850.994 346.305 897.745 372.82C887.587 365.256 879.148 356.273 872.436 345.861C847.326 287.527 821.435 229.549 794.771 171.921C803.777 155.58 816.557 152.193 833.1 161.762C861.392 197.774 887.244 234.565 910.658 272.135C901.642 232.128 892.626 192.121 883.612 152.113C884.567 144.499 888.998 139.583 896.894 137.37C914.584 142.883 928.588 152.887 938.901 167.385C950.66 207.675 959.902 248.871 966.629 290.966C976.109 297.807 984.319 305.607 991.257 314.367C996.882 293.366 999.402 271.498 998.814 248.769C983.261 244.927 973.32 235.091 968.989 219.265C969.129 212.992 972.279 208.416 978.44 205.536C987.641 203.989 996.582 201.621 1005.27 198.425C1006.2 166.039 1018.52 160.279 1042.23 181.146C1047.32 190.185 1051.17 199.765 1053.79 209.881C1089.86 221.37 1127.39 224.513 1166.36 219.321C1202.14 209.838 1237.91 200.359 1273.68 190.876C1337.22 183.056 1391.24 198.663 1435.72 237.706C1437.9 247.254 1437.69 256.662 1435.09 265.929ZM1392.77 318.296C1384.37 330.5 1375.97 342.7 1367.57 354.904C1356.64 346.597 1344 343.714 1329.66 346.248C1249.75 386.749 1169.36 426.14 1088.5 464.411C1074.02 469.695 1059.51 471.047 1044.98 468.467C979.751 445.89 913.925 424.682 847.498 404.844C805.846 366.29 764.803 327.29 724.366 287.845C738.998 283.395 752.158 285.519 763.85 294.213C798.635 319.64 833.117 345.416 867.291 371.542C926.35 391.642 983.757 414.457 1039.51 439.987C1001.84 414.122 961.428 392.415 918.276 374.861C906.548 365.898 895.328 356.402 884.618 346.373C858.501 287.207 832.386 228.039 806.271 168.873C825.478 167.945 839.025 175.577 846.91 191.768C873.185 237.91 897.024 285.208 918.43 333.67C958.119 358.055 997.184 383.238 1035.63 409.22C1044.2 411.937 1052.78 414.648 1061.36 417.365C1018.35 386.004 974.315 355.9 929.246 327.062C921.244 266.898 909.865 207.567 895.11 149.065C915.61 156.583 929.018 170.487 935.332 190.777C942.159 226.377 948.986 261.975 955.813 297.574C988.658 326.321 1023.37 353.281 1059.94 378.462C1069.26 381.601 1078.59 384.737 1087.92 387.878C1062.95 366.848 1036.98 346.92 1010 328.102C1007.64 279.176 1010.27 229.85 1017.87 180.122C1029.81 185.325 1036.97 194.652 1039.35 208.097C1036.94 239.777 1036.24 271.136 1037.25 302.175C1059.59 318.697 1081.57 335.317 1103.2 352.03C1116.25 355.543 1129.48 354.527 1142.89 348.99C1182.79 314.293 1225.14 283.118 1269.96 255.457C1295.03 247.485 1319.69 246.561 1343.94 252.682C1321.12 235.692 1294.5 233.396 1264.08 245.793C1225.9 268.649 1190.76 295.421 1158.65 326.111C1129.84 351.424 1106.76 350.059 1089.39 322.023C1116.12 308.505 1122.63 289.944 1108.92 266.344C1088.96 262.972 1068.95 260.168 1048.91 257.935C1048.89 247.341 1048.87 236.749 1048.85 226.153C1087.02 230.899 1125.6 232.519 1164.58 231.018C1217.18 213.309 1270.24 202.985 1323.77 200.042C1364.83 205.627 1400.57 220.471 1430.99 244.57C1416.67 269.322 1403.93 293.897 1392.77 318.296ZM1109.87 292.279C1090.33 322.738 1069.96 325.023 1048.75 299.128C1045.35 288.464 1044.58 277.443 1046.44 266.073C1065.03 269.76 1083.75 272.901 1102.62 275.495C1105.03 281.257 1107.45 286.848 1109.87 292.279ZM1006.01 233.768C1003.84 238.11 1000.23 240.314 995.19 240.377C974.2 224.245 976.437 214.925 1001.91 212.408C1001.47 220.225 1002.83 227.344 1006.01 233.768Z"/>
<path fill-rule="evenodd" clip-rule="evenodd" d="M0.831805 292.454C15.134 256.291 29.4355 220.129 43.7377 183.966C57.4657 185.602 71.1086 183.857 84.6663 178.729C156.909 114.854 232.254 55.3481 310.695 0.217392C378.624 2.00696 445.728 5.44521 512.001 10.5426C533.544 16.8947 555.086 23.2467 576.628 29.5987C610.644 52.6537 646.668 73.8506 684.703 93.1922C704.256 103.965 703.481 115.274 682.386 127.121C671.098 129.474 660.133 129.125 649.493 126.075C601.668 102.517 551.999 83.067 500.491 67.7184C512.087 72.8101 522.326 79.6703 531.203 88.311C568.762 139.523 607.002 190.214 645.917 240.39C640.807 258.335 629.114 264.503 610.845 258.89C575.194 230.144 541.746 200.092 510.499 168.734C528.262 205.697 546.025 242.661 563.786 279.626C564.564 287.261 561.349 293.045 554.151 296.974C535.675 295.57 519.783 288.964 506.48 277.149C485.981 240.525 467.731 202.454 451.729 162.941C440.957 158.402 431.206 152.643 422.479 145.664C421.71 167.391 424.161 189.267 429.834 211.285C445.852 211.538 457.747 218.893 465.519 233.344C466.79 239.488 464.747 244.654 459.389 248.843C450.77 252.415 442.588 256.729 434.839 261.793C441.201 293.562 430.486 301.939 402.695 286.925C395.707 279.259 389.806 270.787 384.989 261.515C347.258 258.414 309.983 263.771 273.167 277.576C240.432 294.845 207.7 312.108 174.965 329.377C114.8 351.254 58.6606 348.165 6.55191 320.098C2.28394 311.283 0.377242 302.068 0.831805 292.454ZM30.3207 231.927C35.7697 218.149 41.2169 204.376 46.6659 190.598C59.1833 196.239 72.1459 196.214 85.5513 190.527C154.341 133.127 223.84 76.7032 294.045 21.2656C306.975 12.8661 320.811 8.29319 335.552 7.54683C404.181 14.9122 473.086 20.8092 542.272 25.2366C591.512 53.4613 640.259 82.2577 688.516 111.623C675.256 119.244 661.955 120.126 648.61 114.277C609.006 97.3039 569.62 79.922 530.455 62.131C468.392 55.795 407.329 46.4422 347.265 34.0742C389.78 50.8268 434.035 62.9125 480.026 70.3365C493.466 76.4394 506.53 83.1759 519.217 90.5452C557.944 142.343 596.669 194.142 635.395 245.94C616.885 251.154 601.971 246.756 590.654 232.747C554.696 193.678 520.852 152.934 489.118 110.512C444.969 95.6538 401.25 79.8784 357.957 63.1845C348.99 62.4612 340.023 61.7443 331.057 61.021C380.003 81.9325 429.67 101.387 480.06 119.378C501.358 176.212 525.76 231.477 553.265 285.176C531.601 282.45 515.415 271.909 504.709 253.554C490.068 220.393 475.428 187.234 460.787 154.075C422.33 133.431 382.456 114.947 341.169 98.613C331.375 97.6474 321.579 96.6843 311.784 95.7168C340.838 110.607 370.619 124.2 401.13 136.485C414.406 183.634 422.919 232.291 426.667 282.457C413.862 280.066 404.794 272.582 399.459 260.014C394.698 228.602 388.343 197.886 380.394 167.865C354.917 156.776 329.767 145.512 304.938 134.079C291.438 133.582 278.77 137.542 266.939 145.948C235.844 188.712 201.567 228.595 164.104 265.606C141.456 279.002 117.633 285.435 92.632 284.911C118.681 296.347 145.138 292.612 172.003 273.704C204.08 242.864 232.318 208.89 256.724 171.777C279.111 140.648 301.913 136.798 325.131 160.222C302.115 179.393 299.935 198.941 318.592 218.864C338.801 217.67 358.925 215.913 378.963 213.591C381.357 223.912 383.753 234.229 386.147 244.551C347.884 248.491 309.928 255.568 272.283 265.777C224.993 294.838 175.598 316.805 124.093 331.684C82.8304 335.454 44.6724 329.008 9.61651 312.349C18.0192 285.015 24.9204 258.208 30.3207 231.927ZM311.85 193.802C324.051 159.736 343.391 152.938 369.872 173.414C375.574 183.045 378.797 193.611 379.542 205.108C360.601 205.685 341.646 206.826 322.678 208.532C319.034 203.459 315.423 198.553 311.85 193.802ZM426.19 227.517C427.33 222.799 430.35 219.841 435.248 218.65C459.323 229.66 459.234 239.245 434.975 247.413C433.654 239.696 430.725 233.064 426.19 227.517Z"/>
</mask>
<path fill-rule="evenodd" clip-rule="evenodd" d="M1435.09 265.929C1413.04 297.961 1390.99 329.992 1368.94 362.024C1355.92 357.349 1342.24 355.989 1327.88 357.943C1243.14 403.979 1156.37 445.062 1067.56 481.187C1001.76 464.201 937.139 445.793 873.699 425.955C854.131 414.931 834.564 403.908 814.996 392.884C787.021 362.784 756.672 334.045 723.946 306.662C707.309 291.776 710.601 280.93 733.817 274.118C745.345 274.358 755.952 277.158 765.636 282.518C806.957 316.206 850.994 346.305 897.745 372.82C887.587 365.256 879.148 356.273 872.436 345.861C847.326 287.527 821.435 229.549 794.771 171.921C803.777 155.58 816.557 152.193 833.1 161.762C861.392 197.774 887.244 234.565 910.658 272.135C901.642 232.128 892.626 192.121 883.612 152.113C884.567 144.499 888.998 139.583 896.894 137.37C914.584 142.883 928.588 152.887 938.901 167.385C950.66 207.675 959.902 248.871 966.629 290.966C976.109 297.807 984.319 305.607 991.257 314.367C996.882 293.366 999.402 271.498 998.814 248.769C983.261 244.927 973.32 235.091 968.989 219.265C969.129 212.992 972.279 208.416 978.44 205.536C987.641 203.989 996.582 201.621 1005.27 198.425C1006.2 166.039 1018.52 160.279 1042.23 181.146C1047.32 190.185 1051.17 199.765 1053.79 209.881C1089.86 221.37 1127.39 224.513 1166.36 219.321C1202.14 209.838 1237.91 200.359 1273.68 190.876C1337.22 183.056 1391.24 198.663 1435.72 237.706C1437.9 247.254 1437.69 256.662 1435.09 265.929ZM1392.77 318.296C1384.37 330.5 1375.97 342.7 1367.57 354.904C1356.64 346.597 1344 343.714 1329.66 346.248C1249.75 386.749 1169.36 426.14 1088.5 464.411C1074.02 469.695 1059.51 471.047 1044.98 468.467C979.751 445.89 913.925 424.682 847.498 404.844C805.846 366.29 764.803 327.29 724.366 287.845C738.998 283.395 752.158 285.519 763.85 294.213C798.635 319.64 833.117 345.416 867.291 371.542C926.35 391.642 983.757 414.457 1039.51 439.987C1001.84 414.122 961.428 392.415 918.276 374.861C906.548 365.898 895.328 356.402 884.618 346.373C858.501 287.207 832.386 228.039 806.271 168.873C825.478 167.945 839.025 175.577 846.91 191.768C873.185 237.91 897.024 285.208 918.43 333.67C958.119 358.055 997.184 383.238 1035.63 409.22C1044.2 411.937 1052.78 414.648 1061.36 417.365C1018.35 386.004 974.315 355.9 929.246 327.062C921.244 266.898 909.865 207.567 895.11 149.065C915.61 156.583 929.018 170.487 935.332 190.777C942.159 226.377 948.986 261.975 955.813 297.574C988.658 326.321 1023.37 353.281 1059.94 378.462C1069.26 381.601 1078.59 384.737 1087.92 387.878C1062.95 366.848 1036.98 346.92 1010 328.102C1007.64 279.176 1010.27 229.85 1017.87 180.122C1029.81 185.325 1036.97 194.652 1039.35 208.097C1036.94 239.777 1036.24 271.136 1037.25 302.175C1059.59 318.697 1081.57 335.317 1103.2 352.03C1116.25 355.543 1129.48 354.527 1142.89 348.99C1182.79 314.293 1225.14 283.118 1269.96 255.457C1295.03 247.485 1319.69 246.561 1343.94 252.682C1321.12 235.692 1294.5 233.396 1264.08 245.793C1225.9 268.649 1190.76 295.421 1158.65 326.111C1129.84 351.424 1106.76 350.059 1089.39 322.023C1116.12 308.505 1122.63 289.944 1108.92 266.344C1088.96 262.972 1068.95 260.168 1048.91 257.935C1048.89 247.341 1048.87 236.749 1048.85 226.153C1087.02 230.899 1125.6 232.519 1164.58 231.018C1217.18 213.309 1270.24 202.985 1323.77 200.042C1364.83 205.627 1400.57 220.471 1430.99 244.57C1416.67 269.322 1403.93 293.897 1392.77 318.296ZM1109.87 292.279C1090.33 322.738 1069.96 325.023 1048.75 299.128C1045.35 288.464 1044.58 277.443 1046.44 266.073C1065.03 269.76 1083.75 272.901 1102.62 275.495C1105.03 281.257 1107.45 286.848 1109.87 292.279ZM1006.01 233.768C1003.84 238.11 1000.23 240.314 995.19 240.377C974.2 224.245 976.437 214.925 1001.91 212.408C1001.47 220.225 1002.83 227.344 1006.01 233.768Z" stroke="#2A2A2A" stroke-width="2" mask="url(#path-1-inside-1_45539_245)"/>
<path fill-rule="evenodd" clip-rule="evenodd" d="M0.831805 292.454C15.134 256.291 29.4355 220.129 43.7377 183.966C57.4657 185.602 71.1086 183.857 84.6663 178.729C156.909 114.854 232.254 55.3481 310.695 0.217392C378.624 2.00696 445.728 5.44521 512.001 10.5426C533.544 16.8947 555.086 23.2467 576.628 29.5987C610.644 52.6537 646.668 73.8506 684.703 93.1922C704.256 103.965 703.481 115.274 682.386 127.121C671.098 129.474 660.133 129.125 649.493 126.075C601.668 102.517 551.999 83.067 500.491 67.7184C512.087 72.8101 522.326 79.6703 531.203 88.311C568.762 139.523 607.002 190.214 645.917 240.39C640.807 258.335 629.114 264.503 610.845 258.89C575.194 230.144 541.746 200.092 510.499 168.734C528.262 205.697 546.025 242.661 563.786 279.626C564.564 287.261 561.349 293.045 554.151 296.974C535.675 295.57 519.783 288.964 506.48 277.149C485.981 240.525 467.731 202.454 451.729 162.941C440.957 158.402 431.206 152.643 422.479 145.664C421.71 167.391 424.161 189.267 429.834 211.285C445.852 211.538 457.747 218.893 465.519 233.344C466.79 239.488 464.747 244.654 459.389 248.843C450.77 252.415 442.588 256.729 434.839 261.793C441.201 293.562 430.486 301.939 402.695 286.925C395.707 279.259 389.806 270.787 384.989 261.515C347.258 258.414 309.983 263.771 273.167 277.576C240.432 294.845 207.7 312.108 174.965 329.377C114.8 351.254 58.6606 348.165 6.55191 320.098C2.28394 311.283 0.377242 302.068 0.831805 292.454ZM30.3207 231.927C35.7697 218.149 41.2169 204.376 46.6659 190.598C59.1833 196.239 72.1459 196.214 85.5513 190.527C154.341 133.127 223.84 76.7032 294.045 21.2656C306.975 12.8661 320.811 8.29319 335.552 7.54683C404.181 14.9122 473.086 20.8092 542.272 25.2366C591.512 53.4613 640.259 82.2577 688.516 111.623C675.256 119.244 661.955 120.126 648.61 114.277C609.006 97.3039 569.62 79.922 530.455 62.131C468.392 55.795 407.329 46.4422 347.265 34.0742C389.78 50.8268 434.035 62.9125 480.026 70.3365C493.466 76.4394 506.53 83.1759 519.217 90.5452C557.944 142.343 596.669 194.142 635.395 245.94C616.885 251.154 601.971 246.756 590.654 232.747C554.696 193.678 520.852 152.934 489.118 110.512C444.969 95.6538 401.25 79.8784 357.957 63.1845C348.99 62.4612 340.023 61.7443 331.057 61.021C380.003 81.9325 429.67 101.387 480.06 119.378C501.358 176.212 525.76 231.477 553.265 285.176C531.601 282.45 515.415 271.909 504.709 253.554C490.068 220.393 475.428 187.234 460.787 154.075C422.33 133.431 382.456 114.947 341.169 98.613C331.375 97.6474 321.579 96.6843 311.784 95.7168C340.838 110.607 370.619 124.2 401.13 136.485C414.406 183.634 422.919 232.291 426.667 282.457C413.862 280.066 404.794 272.582 399.459 260.014C394.698 228.602 388.343 197.886 380.394 167.865C354.917 156.776 329.767 145.512 304.938 134.079C291.438 133.582 278.77 137.542 266.939 145.948C235.844 188.712 201.567 228.595 164.104 265.606C141.456 279.002 117.633 285.435 92.632 284.911C118.681 296.347 145.138 292.612 172.003 273.704C204.08 242.864 232.318 208.89 256.724 171.777C279.111 140.648 301.913 136.798 325.131 160.222C302.115 179.393 299.935 198.941 318.592 218.864C338.801 217.67 358.925 215.913 378.963 213.591C381.357 223.912 383.753 234.229 386.147 244.551C347.884 248.491 309.928 255.568 272.283 265.777C224.993 294.838 175.598 316.805 124.093 331.684C82.8304 335.454 44.6724 329.008 9.61651 312.349C18.0192 285.015 24.9204 258.208 30.3207 231.927ZM311.85 193.802C324.051 159.736 343.391 152.938 369.872 173.414C375.574 183.045 378.797 193.611 379.542 205.108C360.601 205.685 341.646 206.826 322.678 208.532C319.034 203.459 315.423 198.553 311.85 193.802ZM426.19 227.517C427.33 222.799 430.35 219.841 435.248 218.65C459.323 229.66 459.234 239.245 434.975 247.413C433.654 239.696 430.725 233.064 426.19 227.517Z" stroke="#2A2A2A" stroke-width="2" mask="url(#path-1-inside-1_45539_245)"/>
</g>
</svg>
