<svg width="859" height="719" viewBox="0 0 859 719" fill="none" xmlns="http://www.w3.org/2000/svg">
<g opacity="0.05">
<mask id="path-1-inside-1_45536_238" fill="white">
<path fill-rule="evenodd" clip-rule="evenodd" d="M263.905 -1.54504C279.9 -1.54504 295.895 -1.54504 311.888 -1.54504C340.569 5.43164 370.095 11.0969 400.473 15.4506C416.306 18.1339 418.764 24.3141 407.854 33.9914C400.967 37.0343 393.585 38.5793 385.708 38.6266C347.712 33.5626 309.573 30.9873 271.287 30.9013C280.337 31.7959 288.949 33.8561 297.125 37.0815C335.565 58.5821 374.322 79.6979 413.391 100.429C414.712 110.851 408.559 116 394.935 115.88C363.672 106.111 333.529 95.2952 304.507 83.4335C326.038 100.429 347.568 117.425 369.099 134.421C371.623 138.388 371.007 141.993 367.253 145.236C354.6 147.403 342.296 146.372 330.343 142.146C307.082 125.766 284.937 108.255 263.905 89.6138C255.293 87.5535 246.681 87.5535 238.069 89.6138C244.945 96.9188 251.096 104.644 256.523 112.79C269.411 114.832 281.099 118.952 291.588 125.15C294.049 128.24 294.049 131.331 291.588 134.421C286.797 137.695 282.491 141.3 278.67 145.236C291.229 161.052 286.307 167.232 263.905 163.777C257.244 160.773 251.092 157.168 245.451 152.962C219.548 157.261 196.171 166.016 175.322 179.228C152.918 200.056 128.312 218.597 101.502 234.85C71.8259 244.968 41.0674 248.058 9.22747 244.12C4.07157 240.071 0.380583 235.436 -1.84549 230.215C-1.84549 208.584 -1.84549 186.953 -1.84549 165.321C7.71277 164.029 16.3251 160.939 23.9914 156.052C55.2301 110.421 89.6796 66.6449 127.339 24.721C172.976 14.9491 218.498 6.19372 263.905 -1.54504ZM282.361 1.54508C324.871 7.52643 366.702 15.2517 407.854 24.721C404.798 27.5477 401.107 29.6077 396.781 30.9013C360.612 31.0271 324.933 27.422 289.743 20.0859C247.596 30.0142 204.534 35.1645 160.558 35.5365C191.904 39.0923 223.278 39.0923 254.678 35.5365C266.619 35.7892 278.308 37.3343 289.743 40.1717C329.113 61.8026 368.483 83.4335 407.854 105.065C397.161 110.539 386.089 110.539 374.635 105.065C340.454 89.8146 307.234 73.3337 274.978 55.6223C241.095 54.7024 207.261 53.1573 173.477 50.9872C167.94 52.0171 162.404 53.0473 156.867 54.0772C194.885 57.8048 233.026 60.3803 271.287 61.8026C300.394 88.8829 331.154 114.634 363.562 139.056C348.44 141.018 334.907 137.928 322.961 129.785C304.506 114.335 286.052 98.8842 267.596 83.4335C235.993 78.3734 204.004 74.7682 171.631 72.618C165.479 73.648 159.327 74.6782 153.175 75.7082C176.41 79.0959 199.786 81.6709 223.305 83.4335C244.532 106.595 262.986 131.317 278.67 157.597C269.527 158.337 261.53 155.761 254.678 149.872C243.251 133.797 230.948 118.346 217.769 103.519C197.914 101.602 178.228 99.5426 158.713 97.3391C149.605 99.2065 142.223 103.326 136.566 109.699C127.136 137.519 114.834 164.3 99.6566 190.043C88.1204 200.797 73.9718 208.008 57.2103 211.674C77.538 213.686 94.1475 207.506 107.039 193.133C120.256 171.547 130.099 148.886 136.566 125.15C143.267 104.938 157.415 99.2729 179.013 108.155C166.725 130.781 175.338 140.05 204.849 135.965C213.199 133.982 221.195 131.407 228.842 128.24C233.148 133.391 237.453 138.541 241.76 143.691C217.354 151.847 193.978 161.633 171.631 173.047C147.83 196.083 120.764 215.654 90.4292 231.76C63.9843 240.298 36.9173 242.873 9.22747 239.485C5.88085 215.874 3.42018 192.184 1.8455 168.412C17.407 169.336 29.095 164.186 36.9099 152.962C65.3744 110.613 96.7478 69.9256 131.03 30.9013C140.1 26.0741 149.942 22.984 160.558 21.6309C201.963 16.2418 242.564 9.54658 282.361 1.54508ZM186.395 106.609C205.821 102.786 219.355 108.452 226.996 123.605C214.553 126.906 202.25 130.511 190.086 134.421C177.384 126.733 176.154 117.463 186.395 106.609ZM267.596 122.06C286.353 124.052 288.814 129.202 274.978 137.511C267.756 132.938 265.295 127.787 267.596 122.06Z"/>
<path fill-rule="evenodd" clip-rule="evenodd" d="M581.33 -1.54504C607.168 -1.54504 633.004 -1.54504 658.842 -1.54504C660.385 6.45721 664.076 13.6675 669.914 20.0859C724.415 46.2392 776.706 75.0805 826.781 106.609C838.452 144.818 848.912 182.929 858.155 220.944C858.155 234.335 858.155 247.725 858.155 261.116C849.821 285.127 843.054 309.847 837.855 335.279C834.65 348.535 827.269 350.594 815.708 341.459C812.073 335.693 810.227 329.513 810.171 322.918C816.222 291.108 819.296 259.177 819.399 227.125C818.329 234.701 815.871 241.911 812.017 248.755C786.335 280.938 761.115 313.385 736.352 346.095C723.906 347.201 717.753 342.049 717.897 330.644C729.564 304.47 742.482 279.233 756.652 254.935C736.352 272.961 716.052 290.988 695.751 309.013C691.012 311.126 686.705 310.611 682.833 307.468C680.245 296.874 681.474 286.573 686.523 276.566C706.09 257.092 727.007 238.551 749.27 220.944C750.142 213.949 751.988 207.252 754.807 200.858C740.759 205.213 727.224 211.393 714.206 219.399C717.066 228.372 714.604 236.613 706.825 244.12C703.133 246.181 699.442 246.181 695.751 244.12C691.839 240.109 687.535 236.504 682.833 233.305C663.706 243.841 656.324 239.721 660.687 220.944C664.274 215.366 668.581 210.217 673.605 205.494C668.471 183.807 658.011 164.236 642.231 146.781C625.006 132.36 607.784 117.94 590.558 103.519C565.209 74.8432 556.594 42.912 564.721 7.72535C569.556 3.40878 575.092 0.318645 581.33 -1.54504ZM625.622 1.54508C635.466 1.54508 645.307 1.54508 655.151 1.54508C653.902 9.75524 656.364 16.9656 662.532 23.176C712.239 48.8321 761.454 75.0982 810.171 101.975C817.985 107.323 823.522 114.018 826.781 122.06C835.016 161.885 844.243 201.542 854.464 241.03C845.694 274.655 836.466 308.131 826.781 341.459C819.403 335.755 816.329 328.545 817.553 319.829C820.942 294.046 824.633 268.294 828.627 242.575C820.972 206.631 815.436 170.58 812.017 134.421C809.319 161.776 809.936 189.072 813.862 216.309C812.493 225.134 810.648 233.889 808.326 242.575C782.49 275.537 756.652 308.498 730.816 341.459C723.987 332.303 723.987 323.033 730.816 313.649C749.03 285.031 768.715 257.22 789.871 230.215C791.049 202.367 792.894 174.557 795.408 146.781C794.179 141.631 792.946 136.481 791.717 131.331C787.571 163.182 784.494 195.113 782.49 227.125C750.142 251.493 719.385 277.244 690.214 304.378C687.871 291.718 691.562 280.387 701.287 270.386C719.743 254.935 738.197 239.485 756.652 224.035C762.606 198.081 766.91 171.816 769.571 145.236C768.341 139.571 767.109 133.906 765.88 128.24C761.835 147.693 758.756 167.263 756.652 186.953C728.988 204.723 699.461 220.174 668.069 233.305C667.183 225.651 670.261 218.955 677.296 213.219C696.497 203.652 714.952 193.352 732.661 182.318C734.949 165.695 737.411 149.214 740.043 132.875C737.814 125.251 732.89 119.071 725.279 114.335C692.049 106.44 660.063 96.1398 629.313 83.4335C616.469 73.7753 607.858 61.9299 603.477 47.897C601.074 64.9156 608.455 78.8212 625.622 89.6138C651.407 100.68 678.474 108.92 706.825 114.335C730.967 119.944 737.732 131.79 727.125 149.872C710.516 141.28 697.596 144.37 688.369 159.142C692.946 170.129 697.866 180.945 703.133 191.588C696.981 195.193 690.831 198.798 684.678 202.403C674.938 181.971 663.249 162.4 649.614 143.691C622.097 123.765 598.722 101.104 579.485 75.7082C569.287 53.5683 566.212 30.9075 570.257 7.72535C589.333 6.38497 607.787 4.32488 625.622 1.54508ZM703.133 149.872C727.232 149.164 735.23 158.433 727.125 177.682C722.039 182.977 715.886 187.097 708.67 190.043C704.727 179.626 700.421 169.326 695.751 159.142C698.309 155.997 700.767 152.906 703.133 149.872ZM703.133 220.944C706.367 220.54 708.829 221.57 710.515 224.035C708.013 239.861 701.863 241.921 692.06 230.215C696.748 227.78 700.439 224.69 703.133 220.944Z"/>
<path fill-rule="evenodd" clip-rule="evenodd" d="M274.978 718.455C249.142 718.455 223.305 718.455 197.468 718.455C195.925 710.452 192.234 703.242 186.395 696.824C131.893 670.669 79.6035 641.829 29.5279 610.301C17.8558 572.094 7.39803 533.981 -1.84549 495.965C-1.84549 482.576 -1.84549 469.184 -1.84549 455.794C6.48776 431.784 13.2546 407.062 18.455 381.631C21.6598 368.375 29.0419 366.316 40.6009 375.451C44.2353 381.217 46.0809 387.397 46.1373 393.992C40.0886 425.802 37.0125 457.732 36.9099 489.785C37.9784 482.208 40.4392 474.999 44.2918 468.155C69.973 435.971 95.1946 403.525 119.957 370.815C123.648 368.755 127.339 368.755 131.03 370.815C140.065 381.186 140.681 392.002 132.875 403.261C122.595 422.029 110.907 440.053 97.8112 457.339C100.272 459.4 102.732 459.4 105.193 457.339C123.545 440.94 142 424.46 160.558 407.897C165.297 405.783 169.602 406.299 173.477 409.442C177.277 424.213 173.586 437.602 162.404 449.614C143.948 465.065 125.494 480.516 107.039 495.965C106.167 502.962 104.321 509.658 101.502 516.052C113.064 513.274 124.137 508.639 134.721 502.146C137.16 491.355 142.081 481.571 149.485 472.79C153.175 470.728 156.867 470.728 160.558 472.79C164.469 476.801 168.776 480.407 173.477 483.605C192.368 473.089 199.749 477.212 195.622 495.965C191.259 501.664 186.952 507.329 182.704 512.962C187.706 534.209 198.165 553.263 214.077 570.128C235.114 586.708 254.799 604.216 273.133 622.661C291.769 649.576 297.921 678.416 291.588 709.185C286.752 713.502 281.216 716.592 274.978 718.455ZM27.6824 375.451C36.2765 380.598 39.9675 387.809 38.7553 397.082C35.3339 422.862 31.6429 448.612 27.6824 474.335C35.3383 510.279 40.8748 546.332 44.2918 582.489C46.99 555.132 46.3747 527.837 42.4464 500.601C43.816 491.775 45.6616 483.021 47.9829 474.335C73.8198 441.372 99.6566 408.413 125.494 375.451C131.408 384.489 131.408 393.76 125.494 403.261C107.278 431.879 87.593 459.691 66.4378 486.695C65.1765 514.022 63.3311 541.319 60.9013 568.584C62.1315 574.248 63.3621 579.915 64.5922 585.579C68.7388 553.729 71.8148 521.796 73.8198 489.785C106.166 465.417 136.924 439.667 166.095 412.532C168.439 425.192 164.748 436.524 155.022 446.524C136.566 461.975 118.112 477.425 99.6566 492.875C93.7039 518.829 89.3975 545.095 86.7382 571.674C87.9684 577.338 89.1989 583.005 90.4292 588.669C94.0571 569.168 97.1327 549.598 99.6566 529.957C127.322 512.185 156.85 496.736 188.24 483.605C189.124 491.259 186.048 497.955 179.013 503.691C159.813 513.258 141.358 523.558 123.648 534.592C120.287 552.642 118.442 570.669 118.112 588.669C122.418 596.395 129.184 602.059 138.412 605.665C164.753 611.642 190.59 618.854 215.923 627.296C235.839 636.422 248.142 650.327 252.833 669.013C255.142 653.763 248.99 640.886 234.378 630.386C208.198 616.91 179.901 607.64 149.485 602.576C127.18 597.332 119.184 585.484 125.494 567.038C137.796 571.158 150.1 571.158 162.404 567.038C165.492 552.182 162.417 538.275 153.175 525.322C159.327 521.715 165.479 518.112 171.631 514.506C179.957 529.725 187.954 545.176 195.622 560.859C215.188 580.332 236.103 598.873 258.369 616.481C282.661 644.27 291.89 675.172 286.052 709.185C257.879 712.265 229.581 714.323 201.159 715.365C202.407 707.155 199.946 699.946 193.777 693.734C144.069 668.077 94.8562 641.811 46.1373 614.935C38.325 609.587 32.7886 602.89 29.5279 594.85C21.7204 554.956 12.493 515.301 1.8455 475.88C11.1777 442.475 19.7899 409 27.6824 375.451ZM153.175 477.425C168.044 484.81 166.814 490.991 149.485 495.965C147.312 489.844 148.543 483.664 153.175 477.425ZM145.794 526.867C151.339 536.613 156.259 546.912 160.558 557.769C153.145 568.569 143.303 570.113 131.03 562.403C123.062 546.57 127.983 534.722 145.794 526.867Z"/>
<path fill-rule="evenodd" clip-rule="evenodd" d="M858.154 486.695C858.154 508.326 858.154 529.957 858.154 551.588C848.595 552.88 839.984 555.97 832.318 560.859C801.077 606.487 766.629 650.265 728.97 692.189C683.334 701.96 637.81 710.717 592.404 718.455C576.41 718.455 560.413 718.455 544.421 718.455C515.742 711.478 486.214 705.813 455.836 701.459C440.003 698.777 437.545 692.597 448.455 682.918C455.342 679.875 462.724 678.33 470.601 678.283C508.596 683.348 546.735 685.922 585.021 686.008C573.011 685.236 561.938 682.146 551.803 676.739C515.823 656.269 479.529 636.183 442.918 616.481C440.456 613.391 440.456 610.301 442.918 607.21C455.306 599.645 468.224 599.13 481.674 605.665C504.089 614.272 525.619 624.058 546.266 635.022C548.728 632.96 548.728 630.902 546.266 628.842C526.678 613.477 506.994 598.026 487.21 582.489C484.686 578.522 485.302 574.915 489.056 571.674C506.699 568.491 522.691 571.581 537.039 580.944C555.494 596.395 573.948 611.845 592.404 627.296C599.993 628.257 607.375 629.802 614.549 631.932C615.778 630.902 617.011 629.87 618.24 628.842C612.087 620.6 605.939 612.362 599.786 604.12C586.896 602.078 575.21 597.958 564.721 591.76C562.259 588.669 562.259 585.579 564.721 582.489C569.512 579.214 573.819 575.611 577.639 571.674C565.079 555.858 570.003 549.679 592.404 553.133C599.21 556.785 605.975 560.391 612.704 563.948C638.084 559.762 660.841 551.004 680.987 537.682C700.79 520.071 721.702 503.589 743.734 488.24C775.882 472.639 810.33 467.487 847.082 472.79C852.238 476.838 855.928 481.473 858.154 486.695ZM813.862 474.335C824.869 475.765 835.943 476.795 847.082 477.425C850.762 501.011 853.22 524.701 854.464 548.498C838.408 546.721 826.718 551.872 819.399 563.948C790.934 606.298 759.561 646.983 725.279 686.008C716.211 690.835 706.367 693.925 695.751 695.279C652.929 700.39 610.482 707.083 568.412 715.365C528.24 708.022 488.255 700.298 448.455 692.189C451.511 689.362 455.202 687.303 459.527 686.008C495.33 686.42 531.007 688.994 566.566 693.734C609.5 687.325 652.563 682.69 695.751 679.829C663.075 677.569 630.472 678.085 597.94 681.373C587.398 680.227 576.942 678.681 566.566 676.739C527.195 655.107 487.827 633.476 448.455 611.845C459.251 606.895 470.325 606.895 481.674 611.845C515.856 627.095 549.075 643.575 581.33 661.288C614.593 662.273 647.813 663.818 680.987 665.923C687.14 664.894 693.289 663.862 699.442 662.832C661.399 659.362 623.257 656.785 585.021 655.107C555.914 628.025 525.158 602.275 492.747 577.854C507.869 575.891 521.403 578.982 533.348 587.125C551.803 602.576 570.257 618.025 588.713 633.476C619.713 638.461 651.086 642.064 682.832 644.291C689.598 643.263 696.367 642.231 703.133 641.201C679.899 637.815 656.523 635.238 633.004 633.476C611.777 610.316 593.323 585.595 577.639 559.313C586.782 558.572 594.78 561.149 601.631 567.038C613.058 583.114 625.361 598.564 638.54 613.391C658.893 615.378 679.193 617.438 699.442 619.571C707.758 617.244 714.527 613.125 719.743 607.21C729.173 579.39 741.475 552.611 756.652 526.867C768.187 516.113 782.338 508.904 799.099 505.236C778.773 503.225 762.163 509.405 749.27 523.777C735.518 550.074 723.216 576.856 712.361 604.12C704.255 612.231 693.795 615.321 680.987 613.391C680.042 606.308 681.271 599.611 684.678 593.305C682.216 589.185 679.758 585.063 677.296 580.944C659.55 578.358 642.94 580.931 627.468 588.669C623.16 583.519 618.857 578.37 614.549 573.219C638.954 565.064 662.333 555.278 684.678 543.862C707.082 523.035 731.691 504.495 758.497 488.24C776.636 481.279 795.09 476.643 813.862 474.335ZM577.639 579.399C583.449 580.749 587.756 583.84 590.558 588.669C593.098 591.241 592.481 593.298 588.713 594.85C581.947 593.144 575.794 590.57 570.257 587.125C573.51 584.937 575.967 582.359 577.639 579.399ZM662.532 582.489C678.407 586.831 681.481 595.072 671.76 607.21C652.154 614.281 638.005 609.645 629.313 593.305C641.191 590.524 652.264 586.918 662.532 582.489Z"/>
</mask>
<path fill-rule="evenodd" clip-rule="evenodd" d="M263.905 -1.54504C279.9 -1.54504 295.895 -1.54504 311.888 -1.54504C340.569 5.43164 370.095 11.0969 400.473 15.4506C416.306 18.1339 418.764 24.3141 407.854 33.9914C400.967 37.0343 393.585 38.5793 385.708 38.6266C347.712 33.5626 309.573 30.9873 271.287 30.9013C280.337 31.7959 288.949 33.8561 297.125 37.0815C335.565 58.5821 374.322 79.6979 413.391 100.429C414.712 110.851 408.559 116 394.935 115.88C363.672 106.111 333.529 95.2952 304.507 83.4335C326.038 100.429 347.568 117.425 369.099 134.421C371.623 138.388 371.007 141.993 367.253 145.236C354.6 147.403 342.296 146.372 330.343 142.146C307.082 125.766 284.937 108.255 263.905 89.6138C255.293 87.5535 246.681 87.5535 238.069 89.6138C244.945 96.9188 251.096 104.644 256.523 112.79C269.411 114.832 281.099 118.952 291.588 125.15C294.049 128.24 294.049 131.331 291.588 134.421C286.797 137.695 282.491 141.3 278.67 145.236C291.229 161.052 286.307 167.232 263.905 163.777C257.244 160.773 251.092 157.168 245.451 152.962C219.548 157.261 196.171 166.016 175.322 179.228C152.918 200.056 128.312 218.597 101.502 234.85C71.8259 244.968 41.0674 248.058 9.22747 244.12C4.07157 240.071 0.380583 235.436 -1.84549 230.215C-1.84549 208.584 -1.84549 186.953 -1.84549 165.321C7.71277 164.029 16.3251 160.939 23.9914 156.052C55.2301 110.421 89.6796 66.6449 127.339 24.721C172.976 14.9491 218.498 6.19372 263.905 -1.54504ZM282.361 1.54508C324.871 7.52643 366.702 15.2517 407.854 24.721C404.798 27.5477 401.107 29.6077 396.781 30.9013C360.612 31.0271 324.933 27.422 289.743 20.0859C247.596 30.0142 204.534 35.1645 160.558 35.5365C191.904 39.0923 223.278 39.0923 254.678 35.5365C266.619 35.7892 278.308 37.3343 289.743 40.1717C329.113 61.8026 368.483 83.4335 407.854 105.065C397.161 110.539 386.089 110.539 374.635 105.065C340.454 89.8146 307.234 73.3337 274.978 55.6223C241.095 54.7024 207.261 53.1573 173.477 50.9872C167.94 52.0171 162.404 53.0473 156.867 54.0772C194.885 57.8048 233.026 60.3803 271.287 61.8026C300.394 88.8829 331.154 114.634 363.562 139.056C348.44 141.018 334.907 137.928 322.961 129.785C304.506 114.335 286.052 98.8842 267.596 83.4335C235.993 78.3734 204.004 74.7682 171.631 72.618C165.479 73.648 159.327 74.6782 153.175 75.7082C176.41 79.0959 199.786 81.6709 223.305 83.4335C244.532 106.595 262.986 131.317 278.67 157.597C269.527 158.337 261.53 155.761 254.678 149.872C243.251 133.797 230.948 118.346 217.769 103.519C197.914 101.602 178.228 99.5426 158.713 97.3391C149.605 99.2065 142.223 103.326 136.566 109.699C127.136 137.519 114.834 164.3 99.6566 190.043C88.1204 200.797 73.9718 208.008 57.2103 211.674C77.538 213.686 94.1475 207.506 107.039 193.133C120.256 171.547 130.099 148.886 136.566 125.15C143.267 104.938 157.415 99.2729 179.013 108.155C166.725 130.781 175.338 140.05 204.849 135.965C213.199 133.982 221.195 131.407 228.842 128.24C233.148 133.391 237.453 138.541 241.76 143.691C217.354 151.847 193.978 161.633 171.631 173.047C147.83 196.083 120.764 215.654 90.4292 231.76C63.9843 240.298 36.9173 242.873 9.22747 239.485C5.88085 215.874 3.42018 192.184 1.8455 168.412C17.407 169.336 29.095 164.186 36.9099 152.962C65.3744 110.613 96.7478 69.9256 131.03 30.9013C140.1 26.0741 149.942 22.984 160.558 21.6309C201.963 16.2418 242.564 9.54658 282.361 1.54508ZM186.395 106.609C205.821 102.786 219.355 108.452 226.996 123.605C214.553 126.906 202.25 130.511 190.086 134.421C177.384 126.733 176.154 117.463 186.395 106.609ZM267.596 122.06C286.353 124.052 288.814 129.202 274.978 137.511C267.756 132.938 265.295 127.787 267.596 122.06Z" stroke="#2A2A2A" stroke-width="2" mask="url(#path-1-inside-1_45536_238)"/>
<path fill-rule="evenodd" clip-rule="evenodd" d="M581.33 -1.54504C607.168 -1.54504 633.004 -1.54504 658.842 -1.54504C660.385 6.45721 664.076 13.6675 669.914 20.0859C724.415 46.2392 776.706 75.0805 826.781 106.609C838.452 144.818 848.912 182.929 858.155 220.944C858.155 234.335 858.155 247.725 858.155 261.116C849.821 285.127 843.054 309.847 837.855 335.279C834.65 348.535 827.269 350.594 815.708 341.459C812.073 335.693 810.227 329.513 810.171 322.918C816.222 291.108 819.296 259.177 819.399 227.125C818.329 234.701 815.871 241.911 812.017 248.755C786.335 280.938 761.115 313.385 736.352 346.095C723.906 347.201 717.753 342.049 717.897 330.644C729.564 304.47 742.482 279.233 756.652 254.935C736.352 272.961 716.052 290.988 695.751 309.013C691.012 311.126 686.705 310.611 682.833 307.468C680.245 296.874 681.474 286.573 686.523 276.566C706.09 257.092 727.007 238.551 749.27 220.944C750.142 213.949 751.988 207.252 754.807 200.858C740.759 205.213 727.224 211.393 714.206 219.399C717.066 228.372 714.604 236.613 706.825 244.12C703.133 246.181 699.442 246.181 695.751 244.12C691.839 240.109 687.535 236.504 682.833 233.305C663.706 243.841 656.324 239.721 660.687 220.944C664.274 215.366 668.581 210.217 673.605 205.494C668.471 183.807 658.011 164.236 642.231 146.781C625.006 132.36 607.784 117.94 590.558 103.519C565.209 74.8432 556.594 42.912 564.721 7.72535C569.556 3.40878 575.092 0.318645 581.33 -1.54504ZM625.622 1.54508C635.466 1.54508 645.307 1.54508 655.151 1.54508C653.902 9.75524 656.364 16.9656 662.532 23.176C712.239 48.8321 761.454 75.0982 810.171 101.975C817.985 107.323 823.522 114.018 826.781 122.06C835.016 161.885 844.243 201.542 854.464 241.03C845.694 274.655 836.466 308.131 826.781 341.459C819.403 335.755 816.329 328.545 817.553 319.829C820.942 294.046 824.633 268.294 828.627 242.575C820.972 206.631 815.436 170.58 812.017 134.421C809.319 161.776 809.936 189.072 813.862 216.309C812.493 225.134 810.648 233.889 808.326 242.575C782.49 275.537 756.652 308.498 730.816 341.459C723.987 332.303 723.987 323.033 730.816 313.649C749.03 285.031 768.715 257.22 789.871 230.215C791.049 202.367 792.894 174.557 795.408 146.781C794.179 141.631 792.946 136.481 791.717 131.331C787.571 163.182 784.494 195.113 782.49 227.125C750.142 251.493 719.385 277.244 690.214 304.378C687.871 291.718 691.562 280.387 701.287 270.386C719.743 254.935 738.197 239.485 756.652 224.035C762.606 198.081 766.91 171.816 769.571 145.236C768.341 139.571 767.109 133.906 765.88 128.24C761.835 147.693 758.756 167.263 756.652 186.953C728.988 204.723 699.461 220.174 668.069 233.305C667.183 225.651 670.261 218.955 677.296 213.219C696.497 203.652 714.952 193.352 732.661 182.318C734.949 165.695 737.411 149.214 740.043 132.875C737.814 125.251 732.89 119.071 725.279 114.335C692.049 106.44 660.063 96.1398 629.313 83.4335C616.469 73.7753 607.858 61.9299 603.477 47.897C601.074 64.9156 608.455 78.8212 625.622 89.6138C651.407 100.68 678.474 108.92 706.825 114.335C730.967 119.944 737.732 131.79 727.125 149.872C710.516 141.28 697.596 144.37 688.369 159.142C692.946 170.129 697.866 180.945 703.133 191.588C696.981 195.193 690.831 198.798 684.678 202.403C674.938 181.971 663.249 162.4 649.614 143.691C622.097 123.765 598.722 101.104 579.485 75.7082C569.287 53.5683 566.212 30.9075 570.257 7.72535C589.333 6.38497 607.787 4.32488 625.622 1.54508ZM703.133 149.872C727.232 149.164 735.23 158.433 727.125 177.682C722.039 182.977 715.886 187.097 708.67 190.043C704.727 179.626 700.421 169.326 695.751 159.142C698.309 155.997 700.767 152.906 703.133 149.872ZM703.133 220.944C706.367 220.54 708.829 221.57 710.515 224.035C708.013 239.861 701.863 241.921 692.06 230.215C696.748 227.78 700.439 224.69 703.133 220.944Z" stroke="#2A2A2A" stroke-width="2" mask="url(#path-1-inside-1_45536_238)"/>
<path fill-rule="evenodd" clip-rule="evenodd" d="M274.978 718.455C249.142 718.455 223.305 718.455 197.468 718.455C195.925 710.452 192.234 703.242 186.395 696.824C131.893 670.669 79.6035 641.829 29.5279 610.301C17.8558 572.094 7.39803 533.981 -1.84549 495.965C-1.84549 482.576 -1.84549 469.184 -1.84549 455.794C6.48776 431.784 13.2546 407.062 18.455 381.631C21.6598 368.375 29.0419 366.316 40.6009 375.451C44.2353 381.217 46.0809 387.397 46.1373 393.992C40.0886 425.802 37.0125 457.732 36.9099 489.785C37.9784 482.208 40.4392 474.999 44.2918 468.155C69.973 435.971 95.1946 403.525 119.957 370.815C123.648 368.755 127.339 368.755 131.03 370.815C140.065 381.186 140.681 392.002 132.875 403.261C122.595 422.029 110.907 440.053 97.8112 457.339C100.272 459.4 102.732 459.4 105.193 457.339C123.545 440.94 142 424.46 160.558 407.897C165.297 405.783 169.602 406.299 173.477 409.442C177.277 424.213 173.586 437.602 162.404 449.614C143.948 465.065 125.494 480.516 107.039 495.965C106.167 502.962 104.321 509.658 101.502 516.052C113.064 513.274 124.137 508.639 134.721 502.146C137.16 491.355 142.081 481.571 149.485 472.79C153.175 470.728 156.867 470.728 160.558 472.79C164.469 476.801 168.776 480.407 173.477 483.605C192.368 473.089 199.749 477.212 195.622 495.965C191.259 501.664 186.952 507.329 182.704 512.962C187.706 534.209 198.165 553.263 214.077 570.128C235.114 586.708 254.799 604.216 273.133 622.661C291.769 649.576 297.921 678.416 291.588 709.185C286.752 713.502 281.216 716.592 274.978 718.455ZM27.6824 375.451C36.2765 380.598 39.9675 387.809 38.7553 397.082C35.3339 422.862 31.6429 448.612 27.6824 474.335C35.3383 510.279 40.8748 546.332 44.2918 582.489C46.99 555.132 46.3747 527.837 42.4464 500.601C43.816 491.775 45.6616 483.021 47.9829 474.335C73.8198 441.372 99.6566 408.413 125.494 375.451C131.408 384.489 131.408 393.76 125.494 403.261C107.278 431.879 87.593 459.691 66.4378 486.695C65.1765 514.022 63.3311 541.319 60.9013 568.584C62.1315 574.248 63.3621 579.915 64.5922 585.579C68.7388 553.729 71.8148 521.796 73.8198 489.785C106.166 465.417 136.924 439.667 166.095 412.532C168.439 425.192 164.748 436.524 155.022 446.524C136.566 461.975 118.112 477.425 99.6566 492.875C93.7039 518.829 89.3975 545.095 86.7382 571.674C87.9684 577.338 89.1989 583.005 90.4292 588.669C94.0571 569.168 97.1327 549.598 99.6566 529.957C127.322 512.185 156.85 496.736 188.24 483.605C189.124 491.259 186.048 497.955 179.013 503.691C159.813 513.258 141.358 523.558 123.648 534.592C120.287 552.642 118.442 570.669 118.112 588.669C122.418 596.395 129.184 602.059 138.412 605.665C164.753 611.642 190.59 618.854 215.923 627.296C235.839 636.422 248.142 650.327 252.833 669.013C255.142 653.763 248.99 640.886 234.378 630.386C208.198 616.91 179.901 607.64 149.485 602.576C127.18 597.332 119.184 585.484 125.494 567.038C137.796 571.158 150.1 571.158 162.404 567.038C165.492 552.182 162.417 538.275 153.175 525.322C159.327 521.715 165.479 518.112 171.631 514.506C179.957 529.725 187.954 545.176 195.622 560.859C215.188 580.332 236.103 598.873 258.369 616.481C282.661 644.27 291.89 675.172 286.052 709.185C257.879 712.265 229.581 714.323 201.159 715.365C202.407 707.155 199.946 699.946 193.777 693.734C144.069 668.077 94.8562 641.811 46.1373 614.935C38.325 609.587 32.7886 602.89 29.5279 594.85C21.7204 554.956 12.493 515.301 1.8455 475.88C11.1777 442.475 19.7899 409 27.6824 375.451ZM153.175 477.425C168.044 484.81 166.814 490.991 149.485 495.965C147.312 489.844 148.543 483.664 153.175 477.425ZM145.794 526.867C151.339 536.613 156.259 546.912 160.558 557.769C153.145 568.569 143.303 570.113 131.03 562.403C123.062 546.57 127.983 534.722 145.794 526.867Z" stroke="#2A2A2A" stroke-width="2" mask="url(#path-1-inside-1_45536_238)"/>
<path fill-rule="evenodd" clip-rule="evenodd" d="M858.154 486.695C858.154 508.326 858.154 529.957 858.154 551.588C848.595 552.88 839.984 555.97 832.318 560.859C801.077 606.487 766.629 650.265 728.97 692.189C683.334 701.96 637.81 710.717 592.404 718.455C576.41 718.455 560.413 718.455 544.421 718.455C515.742 711.478 486.214 705.813 455.836 701.459C440.003 698.777 437.545 692.597 448.455 682.918C455.342 679.875 462.724 678.33 470.601 678.283C508.596 683.348 546.735 685.922 585.021 686.008C573.011 685.236 561.938 682.146 551.803 676.739C515.823 656.269 479.529 636.183 442.918 616.481C440.456 613.391 440.456 610.301 442.918 607.21C455.306 599.645 468.224 599.13 481.674 605.665C504.089 614.272 525.619 624.058 546.266 635.022C548.728 632.96 548.728 630.902 546.266 628.842C526.678 613.477 506.994 598.026 487.21 582.489C484.686 578.522 485.302 574.915 489.056 571.674C506.699 568.491 522.691 571.581 537.039 580.944C555.494 596.395 573.948 611.845 592.404 627.296C599.993 628.257 607.375 629.802 614.549 631.932C615.778 630.902 617.011 629.87 618.24 628.842C612.087 620.6 605.939 612.362 599.786 604.12C586.896 602.078 575.21 597.958 564.721 591.76C562.259 588.669 562.259 585.579 564.721 582.489C569.512 579.214 573.819 575.611 577.639 571.674C565.079 555.858 570.003 549.679 592.404 553.133C599.21 556.785 605.975 560.391 612.704 563.948C638.084 559.762 660.841 551.004 680.987 537.682C700.79 520.071 721.702 503.589 743.734 488.24C775.882 472.639 810.33 467.487 847.082 472.79C852.238 476.838 855.928 481.473 858.154 486.695ZM813.862 474.335C824.869 475.765 835.943 476.795 847.082 477.425C850.762 501.011 853.22 524.701 854.464 548.498C838.408 546.721 826.718 551.872 819.399 563.948C790.934 606.298 759.561 646.983 725.279 686.008C716.211 690.835 706.367 693.925 695.751 695.279C652.929 700.39 610.482 707.083 568.412 715.365C528.24 708.022 488.255 700.298 448.455 692.189C451.511 689.362 455.202 687.303 459.527 686.008C495.33 686.42 531.007 688.994 566.566 693.734C609.5 687.325 652.563 682.69 695.751 679.829C663.075 677.569 630.472 678.085 597.94 681.373C587.398 680.227 576.942 678.681 566.566 676.739C527.195 655.107 487.827 633.476 448.455 611.845C459.251 606.895 470.325 606.895 481.674 611.845C515.856 627.095 549.075 643.575 581.33 661.288C614.593 662.273 647.813 663.818 680.987 665.923C687.14 664.894 693.289 663.862 699.442 662.832C661.399 659.362 623.257 656.785 585.021 655.107C555.914 628.025 525.158 602.275 492.747 577.854C507.869 575.891 521.403 578.982 533.348 587.125C551.803 602.576 570.257 618.025 588.713 633.476C619.713 638.461 651.086 642.064 682.832 644.291C689.598 643.263 696.367 642.231 703.133 641.201C679.899 637.815 656.523 635.238 633.004 633.476C611.777 610.316 593.323 585.595 577.639 559.313C586.782 558.572 594.78 561.149 601.631 567.038C613.058 583.114 625.361 598.564 638.54 613.391C658.893 615.378 679.193 617.438 699.442 619.571C707.758 617.244 714.527 613.125 719.743 607.21C729.173 579.39 741.475 552.611 756.652 526.867C768.187 516.113 782.338 508.904 799.099 505.236C778.773 503.225 762.163 509.405 749.27 523.777C735.518 550.074 723.216 576.856 712.361 604.12C704.255 612.231 693.795 615.321 680.987 613.391C680.042 606.308 681.271 599.611 684.678 593.305C682.216 589.185 679.758 585.063 677.296 580.944C659.55 578.358 642.94 580.931 627.468 588.669C623.16 583.519 618.857 578.37 614.549 573.219C638.954 565.064 662.333 555.278 684.678 543.862C707.082 523.035 731.691 504.495 758.497 488.24C776.636 481.279 795.09 476.643 813.862 474.335ZM577.639 579.399C583.449 580.749 587.756 583.84 590.558 588.669C593.098 591.241 592.481 593.298 588.713 594.85C581.947 593.144 575.794 590.57 570.257 587.125C573.51 584.937 575.967 582.359 577.639 579.399ZM662.532 582.489C678.407 586.831 681.481 595.072 671.76 607.21C652.154 614.281 638.005 609.645 629.313 593.305C641.191 590.524 652.264 586.918 662.532 582.489Z" stroke="#2A2A2A" stroke-width="2" mask="url(#path-1-inside-1_45536_238)"/>
</g>
</svg>
