<svg width="2013" height="696" viewBox="0 0 2013 696" fill="none" xmlns="http://www.w3.org/2000/svg">
<g opacity="0.4">
<path fill-rule="evenodd" clip-rule="evenodd" d="M390.627 694.889C359.867 688.265 329.107 681.641 298.347 675.017C262.556 630.963 225.66 586.402 187.655 541.357C173.701 528.075 158.25 516.791 141.302 507.499C85.4221 529.072 42.0739 564.297 11.2534 613.194C7.83558 612.458 4.41779 611.722 1 610.986C3.62002 598.819 6.242 586.643 8.86137 574.479C60.169 531.692 71.3046 479.981 42.2727 419.324C50.7889 379.777 59.3064 340.223 67.8227 300.676C90.2296 274.578 119.396 255.389 155.319 243.118C169.319 307.701 164.761 370.389 141.645 431.171C125.662 451.567 107.403 469.925 86.8745 486.226C78.073 493.883 76.1078 503.009 80.9783 513.607C130.099 480.419 183.775 455.362 242 438.458C226.452 379.205 239.625 326.336 281.521 279.844C326.637 251.608 372.094 223.197 417.892 194.611C442.442 169.146 464.372 142.039 483.685 113.279C495.638 221.008 459.946 312.011 376.619 386.272C324.65 418.381 270.32 446.477 213.632 470.549C248.053 480.797 280.92 494.244 312.234 510.883C344.303 542.904 372.585 577.645 397.081 615.102C424.963 632.108 453.758 647.861 483.463 662.354C452.733 675.954 421.786 686.795 390.627 694.889ZM459.675 174.958C460.907 236.783 439.915 292.743 396.699 342.847C354.432 374.81 308.974 403.222 260.328 428.081C253.242 370.161 271.214 319.912 314.246 277.341C371.538 251.689 420.014 217.558 459.675 174.958ZM126.951 275.209C137.504 307.086 144.625 340.45 148.31 375.309C131.027 408.677 108.439 438.834 80.5515 465.767C58.6885 393.338 74.1547 329.82 126.951 275.209ZM198.465 491.158C283.226 503.775 341.94 546.665 374.607 619.815C394.835 636.345 416.794 650.623 440.484 662.651C394.306 675.054 348.563 671.57 303.261 652.199C260.81 598.059 214.642 546.736 164.757 498.223C177.902 498.838 189.138 496.483 198.465 491.158Z" stroke="#2A2A2A" stroke-opacity="0.4"/>
<path fill-rule="evenodd" clip-rule="evenodd" d="M1645.01 0.626465C1674 12.8617 1702.99 25.0967 1731.98 37.3319C1758.94 87.2788 1786.89 137.931 1815.85 189.264C1827.08 204.912 1840.16 218.875 1855.09 231.16C1914.01 220.368 1963.15 193.829 2002.54 151.526C2005.76 152.885 2008.98 154.245 2012.2 155.604C2007.36 167.071 2002.52 178.545 1997.68 190.009C1939.3 222.495 1918.74 271.229 1935.97 336.23C1920.24 373.501 1904.5 410.777 1888.77 448.047C1861.9 469.517 1829.67 482.94 1792.09 488.309C1790.36 422.248 1806.51 361.504 1840.54 306.089C1860.04 289.026 1881.4 274.389 1904.6 262.194C1914.67 256.31 1918.3 247.709 1915.49 236.39C1861.05 259.852 1803.65 274.478 1743.29 280.245C1747.54 341.357 1724.75 390.849 1674.93 428.728C1625.35 448.071 1575.4 467.521 1525.08 487.081C1496.22 507.529 1469.62 530.08 1445.29 554.741C1453.61 446.671 1505.62 363.904 1601.31 306.455C1658.35 284.583 1716.96 267.094 1777.14 253.998C1745.23 237.52 1715.44 218.188 1687.77 196.01C1662.23 158.578 1640.91 119.179 1623.81 77.8166C1599.58 55.9169 1574.23 35.0783 1547.74 15.308C1580.46 7.66767 1612.89 2.77757 1645.01 0.626465ZM1480.37 498.61C1490.67 437.637 1521.71 386.565 1573.5 345.382C1620.98 321.848 1670.93 302.396 1723.36 287.028C1719.53 345.255 1692.52 391.279 1642.31 425.094C1581.25 439.632 1527.26 464.14 1480.37 498.61ZM1825.94 462.06C1821.5 428.775 1820.72 394.67 1823.59 359.734C1846.78 330.167 1874.59 304.743 1907 283.473C1915 358.706 1887.98 418.234 1825.94 462.06ZM1795.88 236.572C1714.95 208.395 1665.25 155.323 1646.77 77.3706C1629.97 57.3629 1611.06 39.2464 1590.02 23.018C1637.7 19.4297 1682 31.3687 1722.9 58.8358C1754.53 119.933 1790.33 178.955 1830.31 235.906C1817.51 232.855 1806.04 233.077 1795.88 236.572Z" stroke="#2A2A2A" stroke-opacity="0.4"/>
</g>
</svg>
