<svg width="732" height="636" viewBox="0 0 732 636" fill="none" xmlns="http://www.w3.org/2000/svg">
<g opacity="0.05" filter="url(#filter0_d_6_288)">
<mask id="path-1-inside-1_6_288" fill="white">
<path fill-rule="evenodd" clip-rule="evenodd" d="M-1.5708 -1.36481C2.61804 -1.36481 6.80689 -1.36481 10.9957 -1.36481C28.7045 9.34464 46.5072 9.34464 64.4035 -1.36481C78.0171 -1.36481 91.631 -1.36481 105.245 -1.36481C115.419 2.90611 123.796 9.2752 130.378 17.7425C110.123 24.8428 89.1793 27.1175 67.5451 24.5665C59.7029 21.6173 52.3726 17.9778 45.5537 13.6481C42.412 11.8283 39.2704 11.8283 36.1288 13.6481C50.5278 24.3271 62.5706 36.6104 72.2575 50.4979C90.648 43.2958 108.974 43.7508 127.236 51.8627C139.721 61.7941 152.288 71.8028 164.936 81.8884C175.051 86.7392 185.524 90.8336 196.352 94.1717C161.758 103.114 129.294 99.02 98.9614 81.8884C84.7163 70.4257 71.6261 58.1424 59.691 45.0386C58.7583 54.3575 56.664 63.4561 53.4077 72.3348C45.1459 82.2479 35.721 91.3465 25.1331 99.6309C21.5126 107.657 18.371 115.846 15.7082 124.197C9.05809 117.124 3.29844 109.845 -1.5708 102.361C-1.5708 94.1717 -1.5708 85.9828 -1.5708 77.794C10.3873 66.2745 22.4302 54.446 34.558 42.309C41.9292 36.2875 43.5 29.4635 39.2704 21.8369C27.3283 12.7797 13.7146 6.86552 -1.5708 4.09442C-1.5708 2.27468 -1.5708 0.454936 -1.5708 -1.36481ZM67.5451 4.09442C85.9255 1.83982 102.681 5.02437 117.811 13.6481C107.357 16.8302 96.8851 20.0147 86.3949 23.2017C74.1921 20.6325 62.673 16.5381 51.8369 10.9185C57.0988 8.22894 62.3347 5.95427 67.5451 4.09442ZM45.5537 34.1202C51.458 43.281 53.0289 53.2894 50.2661 64.1459C43.2179 75.74 33.793 85.7486 21.9914 94.1717C17.9845 100.224 14.8429 106.593 12.5665 113.279C5.21421 102.209 3.11979 90.3811 6.28328 77.794C16.6447 66.0572 28.164 55.1387 40.8412 45.0386C43.3275 41.6403 44.8983 38.0009 45.5537 34.1202ZM92.6781 50.4979C106.001 51.4478 118.568 54.6324 130.378 60.0515C143.189 73.0142 157.85 83.9326 174.361 92.8069C133.481 96.4288 101.018 83.6908 76.97 54.5923C82.8816 54.0515 88.1177 52.6867 92.6781 50.4979Z"/>
<path fill-rule="evenodd" clip-rule="evenodd" d="M611.047 -1.36481C620.472 -1.36481 629.897 -1.36481 639.322 -1.36481C652.58 9.02503 666.195 19.4885 680.163 30.0258C687.094 36.4302 694.948 37.795 703.725 34.1202C714.149 23.7443 720.957 11.9159 724.146 -1.36481C726.241 -1.36481 728.334 -1.36481 730.429 -1.36481C730.429 2.27468 730.429 5.91417 730.429 9.55365C718.412 24.8548 718.412 40.3227 730.429 55.9571C730.429 67.7853 730.429 79.6138 730.429 91.4421C725.513 100.282 718.183 107.56 708.438 113.279C703.986 100.77 700.844 88.0317 699.013 75.0644C701.265 59.4873 705.978 44.9294 713.15 31.3906C700.86 43.9012 686.723 54.3646 670.738 62.7811C679.026 78.7597 678.504 94.6824 669.167 110.549C657.647 121.468 646.13 132.386 634.609 143.305C629.027 152.094 624.314 161.193 620.472 170.601C610.18 140.544 614.893 112.338 634.609 85.9828C647.801 73.6059 661.939 62.2325 677.021 51.8627C666.296 51.0522 655.825 49.2327 645.605 46.4034C634.035 39.069 623.56 30.8801 614.189 21.8369C604.953 18.6913 595.528 15.9617 585.914 13.6481C594.054 7.87013 602.433 2.86585 611.047 -1.36481ZM611.047 4.09442C623.011 3.17495 634.528 4.53976 645.605 8.18884C658.417 21.1515 673.079 32.07 689.588 40.9442C673.296 47.0201 657.587 46.1103 642.464 38.2146C631.232 24.7981 616.57 15.6994 598.481 10.9185C603.401 9.2583 607.591 6.98363 611.047 4.09442ZM714.721 45.0386C716.659 45.3408 718.23 46.2506 719.433 47.7682C727.504 67.11 725.409 85.3075 713.15 102.361C709.487 93.2775 705.824 84.1788 702.155 75.0644C705.491 64.7298 709.682 54.7214 714.721 45.0386ZM664.455 66.8755C671.992 78.1352 672.516 89.9634 666.026 102.361C651.364 118.738 636.705 135.116 622.043 151.494C619.495 133.44 622.637 116.152 631.468 99.6309C641.948 88.2544 652.944 77.336 664.455 66.8755Z"/>
<path fill-rule="evenodd" clip-rule="evenodd" d="M117.811 634.635C108.386 634.635 98.9614 634.635 89.5365 634.635C76.2782 624.246 62.6642 613.781 48.6953 603.245C43.7717 600.308 38.5359 598.034 32.9871 596.421C17.9846 606.026 7.5125 618.762 1.57083 634.635C0.523621 634.635 -0.523592 634.635 -1.5708 634.635C-1.5708 630.997 -1.5708 627.355 -1.5708 623.717C10.7552 608.33 10.7552 592.864 -1.5708 577.313C-1.5708 565.486 -1.5708 553.656 -1.5708 541.828C3.34478 532.99 10.6752 525.71 20.4206 519.991C28.5926 537.589 31.2107 555.788 28.2747 574.584C24.8803 581.397 20.6915 587.768 15.7082 593.691C13.6137 596.421 13.6137 599.15 15.7082 601.88C27.9991 589.37 42.1365 578.905 58.1202 570.489C49.831 554.51 50.3547 538.588 59.691 522.721C71.1215 511.874 82.6409 500.955 94.2489 489.966C99.8319 481.176 104.544 472.079 108.386 462.67C118.679 492.725 113.966 520.933 94.2489 547.288C81.056 559.664 66.9186 571.038 51.8369 581.408C62.5624 582.218 73.0344 584.039 83.2532 586.867C94.6627 594.046 105.135 602.235 114.67 611.433C123.907 614.578 133.332 617.308 142.944 619.622C134.803 625.401 126.425 630.404 117.811 634.635ZM105.245 481.777C109.504 499.372 106.886 516.659 97.3906 533.639C87.0292 545.377 75.5097 556.295 62.8326 566.395C57.1054 550.276 59.1996 534.808 69.1159 519.991C84.2746 509.133 96.3174 496.394 105.245 481.777ZM14.1374 530.91C19.2377 539.372 23.4265 548.469 26.7039 558.206C23.7469 568.808 19.0344 578.817 12.5665 588.232C1.59749 568.876 2.1211 549.769 14.1374 530.91ZM48.6953 588.232C74.3109 586.621 94.2081 595.266 108.386 614.163C115.352 617.643 122.683 620.373 130.378 622.352C117.637 628.739 104.023 630.56 89.5365 627.811C73.692 614.949 56.9367 603.122 39.2704 592.326C43.1582 591.693 46.2998 590.328 48.6953 588.232Z"/>
<path fill-rule="evenodd" clip-rule="evenodd" d="M730.429 530.91C730.429 539.099 730.429 547.288 730.429 555.476C723.59 565.112 714.686 573.301 703.725 580.043C696.339 587.427 690.581 595.615 686.446 604.609C696.785 618.225 711.447 626.414 730.429 629.176C730.429 630.997 730.429 632.815 730.429 634.635C726.241 634.635 722.05 634.635 717.863 634.635C700.153 623.927 682.353 623.927 664.455 634.635C650.842 634.635 637.226 634.635 623.614 634.635C613.441 630.363 605.062 623.995 598.481 615.528C618.735 608.428 639.68 606.152 661.313 608.704C669.155 611.652 676.487 615.293 683.305 619.622C686.446 621.443 689.588 621.443 692.73 619.622C678.332 608.944 666.286 596.661 656.601 582.773C638.21 589.973 619.885 589.52 601.622 581.408C590.162 570.547 577.595 560.54 563.923 551.382C553.807 546.531 543.336 542.437 532.506 539.099C567.099 530.156 599.565 534.251 629.897 551.382C644.141 562.844 657.232 575.127 669.167 588.232C670.1 578.913 672.196 569.815 675.451 560.936C683.713 551.022 693.138 541.924 703.725 533.639C707.344 525.614 710.486 517.426 713.15 509.073C719.801 516.145 725.56 523.425 730.429 530.91ZM714.721 519.991C723.59 530.419 726.207 542.246 722.575 555.476C707.772 569.242 694.159 583.802 681.734 599.15C677.32 589.4 676.274 579.391 678.592 569.124C685.639 557.529 695.064 547.522 706.867 539.099C711.3 533.23 713.92 526.859 714.721 519.991ZM554.498 541.828C574.749 538.127 594.645 540.403 614.189 548.652C627.698 557.655 640.264 567.664 651.888 578.678C633.337 583.654 615.533 581.834 598.481 573.219C585.983 560.048 571.321 549.586 554.498 541.828ZM639.322 610.069C652.982 611.747 665.548 615.842 677.021 622.352C654.364 632.307 632.373 631.395 611.047 619.622C620.981 616.819 630.406 613.634 639.322 610.069Z"/>
</mask>
<path fill-rule="evenodd" clip-rule="evenodd" d="M-1.5708 -1.36481C2.61804 -1.36481 6.80689 -1.36481 10.9957 -1.36481C28.7045 9.34464 46.5072 9.34464 64.4035 -1.36481C78.0171 -1.36481 91.631 -1.36481 105.245 -1.36481C115.419 2.90611 123.796 9.2752 130.378 17.7425C110.123 24.8428 89.1793 27.1175 67.5451 24.5665C59.7029 21.6173 52.3726 17.9778 45.5537 13.6481C42.412 11.8283 39.2704 11.8283 36.1288 13.6481C50.5278 24.3271 62.5706 36.6104 72.2575 50.4979C90.648 43.2958 108.974 43.7508 127.236 51.8627C139.721 61.7941 152.288 71.8028 164.936 81.8884C175.051 86.7392 185.524 90.8336 196.352 94.1717C161.758 103.114 129.294 99.02 98.9614 81.8884C84.7163 70.4257 71.6261 58.1424 59.691 45.0386C58.7583 54.3575 56.664 63.4561 53.4077 72.3348C45.1459 82.2479 35.721 91.3465 25.1331 99.6309C21.5126 107.657 18.371 115.846 15.7082 124.197C9.05809 117.124 3.29844 109.845 -1.5708 102.361C-1.5708 94.1717 -1.5708 85.9828 -1.5708 77.794C10.3873 66.2745 22.4302 54.446 34.558 42.309C41.9292 36.2875 43.5 29.4635 39.2704 21.8369C27.3283 12.7797 13.7146 6.86552 -1.5708 4.09442C-1.5708 2.27468 -1.5708 0.454936 -1.5708 -1.36481ZM67.5451 4.09442C85.9255 1.83982 102.681 5.02437 117.811 13.6481C107.357 16.8302 96.8851 20.0147 86.3949 23.2017C74.1921 20.6325 62.673 16.5381 51.8369 10.9185C57.0988 8.22894 62.3347 5.95427 67.5451 4.09442ZM45.5537 34.1202C51.458 43.281 53.0289 53.2894 50.2661 64.1459C43.2179 75.74 33.793 85.7486 21.9914 94.1717C17.9845 100.224 14.8429 106.593 12.5665 113.279C5.21421 102.209 3.11979 90.3811 6.28328 77.794C16.6447 66.0572 28.164 55.1387 40.8412 45.0386C43.3275 41.6403 44.8983 38.0009 45.5537 34.1202ZM92.6781 50.4979C106.001 51.4478 118.568 54.6324 130.378 60.0515C143.189 73.0142 157.85 83.9326 174.361 92.8069C133.481 96.4288 101.018 83.6908 76.97 54.5923C82.8816 54.0515 88.1177 52.6867 92.6781 50.4979Z" fill="white"/>
<path fill-rule="evenodd" clip-rule="evenodd" d="M611.047 -1.36481C620.472 -1.36481 629.897 -1.36481 639.322 -1.36481C652.58 9.02503 666.195 19.4885 680.163 30.0258C687.094 36.4302 694.948 37.795 703.725 34.1202C714.149 23.7443 720.957 11.9159 724.146 -1.36481C726.241 -1.36481 728.334 -1.36481 730.429 -1.36481C730.429 2.27468 730.429 5.91417 730.429 9.55365C718.412 24.8548 718.412 40.3227 730.429 55.9571C730.429 67.7853 730.429 79.6138 730.429 91.4421C725.513 100.282 718.183 107.56 708.438 113.279C703.986 100.77 700.844 88.0317 699.013 75.0644C701.265 59.4873 705.978 44.9294 713.15 31.3906C700.86 43.9012 686.723 54.3646 670.738 62.7811C679.026 78.7597 678.504 94.6824 669.167 110.549C657.647 121.468 646.13 132.386 634.609 143.305C629.027 152.094 624.314 161.193 620.472 170.601C610.18 140.544 614.893 112.338 634.609 85.9828C647.801 73.6059 661.939 62.2325 677.021 51.8627C666.296 51.0522 655.825 49.2327 645.605 46.4034C634.035 39.069 623.56 30.8801 614.189 21.8369C604.953 18.6913 595.528 15.9617 585.914 13.6481C594.054 7.87013 602.433 2.86585 611.047 -1.36481ZM611.047 4.09442C623.011 3.17495 634.528 4.53976 645.605 8.18884C658.417 21.1515 673.079 32.07 689.588 40.9442C673.296 47.0201 657.587 46.1103 642.464 38.2146C631.232 24.7981 616.57 15.6994 598.481 10.9185C603.401 9.2583 607.591 6.98363 611.047 4.09442ZM714.721 45.0386C716.659 45.3408 718.23 46.2506 719.433 47.7682C727.504 67.11 725.409 85.3075 713.15 102.361C709.487 93.2775 705.824 84.1788 702.155 75.0644C705.491 64.7298 709.682 54.7214 714.721 45.0386ZM664.455 66.8755C671.992 78.1352 672.516 89.9634 666.026 102.361C651.364 118.738 636.705 135.116 622.043 151.494C619.495 133.44 622.637 116.152 631.468 99.6309C641.948 88.2544 652.944 77.336 664.455 66.8755Z" fill="white"/>
<path fill-rule="evenodd" clip-rule="evenodd" d="M117.811 634.635C108.386 634.635 98.9614 634.635 89.5365 634.635C76.2782 624.246 62.6642 613.781 48.6953 603.245C43.7717 600.308 38.5359 598.034 32.9871 596.421C17.9846 606.026 7.5125 618.762 1.57083 634.635C0.523621 634.635 -0.523592 634.635 -1.5708 634.635C-1.5708 630.997 -1.5708 627.355 -1.5708 623.717C10.7552 608.33 10.7552 592.864 -1.5708 577.313C-1.5708 565.486 -1.5708 553.656 -1.5708 541.828C3.34478 532.99 10.6752 525.71 20.4206 519.991C28.5926 537.589 31.2107 555.788 28.2747 574.584C24.8803 581.397 20.6915 587.768 15.7082 593.691C13.6137 596.421 13.6137 599.15 15.7082 601.88C27.9991 589.37 42.1365 578.905 58.1202 570.489C49.831 554.51 50.3547 538.588 59.691 522.721C71.1215 511.874 82.6409 500.955 94.2489 489.966C99.8319 481.176 104.544 472.079 108.386 462.67C118.679 492.725 113.966 520.933 94.2489 547.288C81.056 559.664 66.9186 571.038 51.8369 581.408C62.5624 582.218 73.0344 584.039 83.2532 586.867C94.6627 594.046 105.135 602.235 114.67 611.433C123.907 614.578 133.332 617.308 142.944 619.622C134.803 625.401 126.425 630.404 117.811 634.635ZM105.245 481.777C109.504 499.372 106.886 516.659 97.3906 533.639C87.0292 545.377 75.5097 556.295 62.8326 566.395C57.1054 550.276 59.1996 534.808 69.1159 519.991C84.2746 509.133 96.3174 496.394 105.245 481.777ZM14.1374 530.91C19.2377 539.372 23.4265 548.469 26.7039 558.206C23.7469 568.808 19.0344 578.817 12.5665 588.232C1.59749 568.876 2.1211 549.769 14.1374 530.91ZM48.6953 588.232C74.3109 586.621 94.2081 595.266 108.386 614.163C115.352 617.643 122.683 620.373 130.378 622.352C117.637 628.739 104.023 630.56 89.5365 627.811C73.692 614.949 56.9367 603.122 39.2704 592.326C43.1582 591.693 46.2998 590.328 48.6953 588.232Z" fill="white"/>
<path fill-rule="evenodd" clip-rule="evenodd" d="M730.429 530.91C730.429 539.099 730.429 547.288 730.429 555.476C723.59 565.112 714.686 573.301 703.725 580.043C696.339 587.427 690.581 595.615 686.446 604.609C696.785 618.225 711.447 626.414 730.429 629.176C730.429 630.997 730.429 632.815 730.429 634.635C726.241 634.635 722.05 634.635 717.863 634.635C700.153 623.927 682.353 623.927 664.455 634.635C650.842 634.635 637.226 634.635 623.614 634.635C613.441 630.363 605.062 623.995 598.481 615.528C618.735 608.428 639.68 606.152 661.313 608.704C669.155 611.652 676.487 615.293 683.305 619.622C686.446 621.443 689.588 621.443 692.73 619.622C678.332 608.944 666.286 596.661 656.601 582.773C638.21 589.973 619.885 589.52 601.622 581.408C590.162 570.547 577.595 560.54 563.923 551.382C553.807 546.531 543.336 542.437 532.506 539.099C567.099 530.156 599.565 534.251 629.897 551.382C644.141 562.844 657.232 575.127 669.167 588.232C670.1 578.913 672.196 569.815 675.451 560.936C683.713 551.022 693.138 541.924 703.725 533.639C707.344 525.614 710.486 517.426 713.15 509.073C719.801 516.145 725.56 523.425 730.429 530.91ZM714.721 519.991C723.59 530.419 726.207 542.246 722.575 555.476C707.772 569.242 694.159 583.802 681.734 599.15C677.32 589.4 676.274 579.391 678.592 569.124C685.639 557.529 695.064 547.522 706.867 539.099C711.3 533.23 713.92 526.859 714.721 519.991ZM554.498 541.828C574.749 538.127 594.645 540.403 614.189 548.652C627.698 557.655 640.264 567.664 651.888 578.678C633.337 583.654 615.533 581.834 598.481 573.219C585.983 560.048 571.321 549.586 554.498 541.828ZM639.322 610.069C652.982 611.747 665.548 615.842 677.021 622.352C654.364 632.307 632.373 631.395 611.047 619.622C620.981 616.819 630.406 613.634 639.322 610.069Z" fill="white"/>
<path fill-rule="evenodd" clip-rule="evenodd" d="M-1.5708 -1.36481C2.61804 -1.36481 6.80689 -1.36481 10.9957 -1.36481C28.7045 9.34464 46.5072 9.34464 64.4035 -1.36481C78.0171 -1.36481 91.631 -1.36481 105.245 -1.36481C115.419 2.90611 123.796 9.2752 130.378 17.7425C110.123 24.8428 89.1793 27.1175 67.5451 24.5665C59.7029 21.6173 52.3726 17.9778 45.5537 13.6481C42.412 11.8283 39.2704 11.8283 36.1288 13.6481C50.5278 24.3271 62.5706 36.6104 72.2575 50.4979C90.648 43.2958 108.974 43.7508 127.236 51.8627C139.721 61.7941 152.288 71.8028 164.936 81.8884C175.051 86.7392 185.524 90.8336 196.352 94.1717C161.758 103.114 129.294 99.02 98.9614 81.8884C84.7163 70.4257 71.6261 58.1424 59.691 45.0386C58.7583 54.3575 56.664 63.4561 53.4077 72.3348C45.1459 82.2479 35.721 91.3465 25.1331 99.6309C21.5126 107.657 18.371 115.846 15.7082 124.197C9.05809 117.124 3.29844 109.845 -1.5708 102.361C-1.5708 94.1717 -1.5708 85.9828 -1.5708 77.794C10.3873 66.2745 22.4302 54.446 34.558 42.309C41.9292 36.2875 43.5 29.4635 39.2704 21.8369C27.3283 12.7797 13.7146 6.86552 -1.5708 4.09442C-1.5708 2.27468 -1.5708 0.454936 -1.5708 -1.36481ZM67.5451 4.09442C85.9255 1.83982 102.681 5.02437 117.811 13.6481C107.357 16.8302 96.8851 20.0147 86.3949 23.2017C74.1921 20.6325 62.673 16.5381 51.8369 10.9185C57.0988 8.22894 62.3347 5.95427 67.5451 4.09442ZM45.5537 34.1202C51.458 43.281 53.0289 53.2894 50.2661 64.1459C43.2179 75.74 33.793 85.7486 21.9914 94.1717C17.9845 100.224 14.8429 106.593 12.5665 113.279C5.21421 102.209 3.11979 90.3811 6.28328 77.794C16.6447 66.0572 28.164 55.1387 40.8412 45.0386C43.3275 41.6403 44.8983 38.0009 45.5537 34.1202ZM92.6781 50.4979C106.001 51.4478 118.568 54.6324 130.378 60.0515C143.189 73.0142 157.85 83.9326 174.361 92.8069C133.481 96.4288 101.018 83.6908 76.97 54.5923C82.8816 54.0515 88.1177 52.6867 92.6781 50.4979Z" stroke="black" stroke-width="2" mask="url(#path-1-inside-1_6_288)"/>
<path fill-rule="evenodd" clip-rule="evenodd" d="M611.047 -1.36481C620.472 -1.36481 629.897 -1.36481 639.322 -1.36481C652.58 9.02503 666.195 19.4885 680.163 30.0258C687.094 36.4302 694.948 37.795 703.725 34.1202C714.149 23.7443 720.957 11.9159 724.146 -1.36481C726.241 -1.36481 728.334 -1.36481 730.429 -1.36481C730.429 2.27468 730.429 5.91417 730.429 9.55365C718.412 24.8548 718.412 40.3227 730.429 55.9571C730.429 67.7853 730.429 79.6138 730.429 91.4421C725.513 100.282 718.183 107.56 708.438 113.279C703.986 100.77 700.844 88.0317 699.013 75.0644C701.265 59.4873 705.978 44.9294 713.15 31.3906C700.86 43.9012 686.723 54.3646 670.738 62.7811C679.026 78.7597 678.504 94.6824 669.167 110.549C657.647 121.468 646.13 132.386 634.609 143.305C629.027 152.094 624.314 161.193 620.472 170.601C610.18 140.544 614.893 112.338 634.609 85.9828C647.801 73.6059 661.939 62.2325 677.021 51.8627C666.296 51.0522 655.825 49.2327 645.605 46.4034C634.035 39.069 623.56 30.8801 614.189 21.8369C604.953 18.6913 595.528 15.9617 585.914 13.6481C594.054 7.87013 602.433 2.86585 611.047 -1.36481ZM611.047 4.09442C623.011 3.17495 634.528 4.53976 645.605 8.18884C658.417 21.1515 673.079 32.07 689.588 40.9442C673.296 47.0201 657.587 46.1103 642.464 38.2146C631.232 24.7981 616.57 15.6994 598.481 10.9185C603.401 9.2583 607.591 6.98363 611.047 4.09442ZM714.721 45.0386C716.659 45.3408 718.23 46.2506 719.433 47.7682C727.504 67.11 725.409 85.3075 713.15 102.361C709.487 93.2775 705.824 84.1788 702.155 75.0644C705.491 64.7298 709.682 54.7214 714.721 45.0386ZM664.455 66.8755C671.992 78.1352 672.516 89.9634 666.026 102.361C651.364 118.738 636.705 135.116 622.043 151.494C619.495 133.44 622.637 116.152 631.468 99.6309C641.948 88.2544 652.944 77.336 664.455 66.8755Z" stroke="black" stroke-width="2" mask="url(#path-1-inside-1_6_288)"/>
<path fill-rule="evenodd" clip-rule="evenodd" d="M117.811 634.635C108.386 634.635 98.9614 634.635 89.5365 634.635C76.2782 624.246 62.6642 613.781 48.6953 603.245C43.7717 600.308 38.5359 598.034 32.9871 596.421C17.9846 606.026 7.5125 618.762 1.57083 634.635C0.523621 634.635 -0.523592 634.635 -1.5708 634.635C-1.5708 630.997 -1.5708 627.355 -1.5708 623.717C10.7552 608.33 10.7552 592.864 -1.5708 577.313C-1.5708 565.486 -1.5708 553.656 -1.5708 541.828C3.34478 532.99 10.6752 525.71 20.4206 519.991C28.5926 537.589 31.2107 555.788 28.2747 574.584C24.8803 581.397 20.6915 587.768 15.7082 593.691C13.6137 596.421 13.6137 599.15 15.7082 601.88C27.9991 589.37 42.1365 578.905 58.1202 570.489C49.831 554.51 50.3547 538.588 59.691 522.721C71.1215 511.874 82.6409 500.955 94.2489 489.966C99.8319 481.176 104.544 472.079 108.386 462.67C118.679 492.725 113.966 520.933 94.2489 547.288C81.056 559.664 66.9186 571.038 51.8369 581.408C62.5624 582.218 73.0344 584.039 83.2532 586.867C94.6627 594.046 105.135 602.235 114.67 611.433C123.907 614.578 133.332 617.308 142.944 619.622C134.803 625.401 126.425 630.404 117.811 634.635ZM105.245 481.777C109.504 499.372 106.886 516.659 97.3906 533.639C87.0292 545.377 75.5097 556.295 62.8326 566.395C57.1054 550.276 59.1996 534.808 69.1159 519.991C84.2746 509.133 96.3174 496.394 105.245 481.777ZM14.1374 530.91C19.2377 539.372 23.4265 548.469 26.7039 558.206C23.7469 568.808 19.0344 578.817 12.5665 588.232C1.59749 568.876 2.1211 549.769 14.1374 530.91ZM48.6953 588.232C74.3109 586.621 94.2081 595.266 108.386 614.163C115.352 617.643 122.683 620.373 130.378 622.352C117.637 628.739 104.023 630.56 89.5365 627.811C73.692 614.949 56.9367 603.122 39.2704 592.326C43.1582 591.693 46.2998 590.328 48.6953 588.232Z" stroke="black" stroke-width="2" mask="url(#path-1-inside-1_6_288)"/>
<path fill-rule="evenodd" clip-rule="evenodd" d="M730.429 530.91C730.429 539.099 730.429 547.288 730.429 555.476C723.59 565.112 714.686 573.301 703.725 580.043C696.339 587.427 690.581 595.615 686.446 604.609C696.785 618.225 711.447 626.414 730.429 629.176C730.429 630.997 730.429 632.815 730.429 634.635C726.241 634.635 722.05 634.635 717.863 634.635C700.153 623.927 682.353 623.927 664.455 634.635C650.842 634.635 637.226 634.635 623.614 634.635C613.441 630.363 605.062 623.995 598.481 615.528C618.735 608.428 639.68 606.152 661.313 608.704C669.155 611.652 676.487 615.293 683.305 619.622C686.446 621.443 689.588 621.443 692.73 619.622C678.332 608.944 666.286 596.661 656.601 582.773C638.21 589.973 619.885 589.52 601.622 581.408C590.162 570.547 577.595 560.54 563.923 551.382C553.807 546.531 543.336 542.437 532.506 539.099C567.099 530.156 599.565 534.251 629.897 551.382C644.141 562.844 657.232 575.127 669.167 588.232C670.1 578.913 672.196 569.815 675.451 560.936C683.713 551.022 693.138 541.924 703.725 533.639C707.344 525.614 710.486 517.426 713.15 509.073C719.801 516.145 725.56 523.425 730.429 530.91ZM714.721 519.991C723.59 530.419 726.207 542.246 722.575 555.476C707.772 569.242 694.159 583.802 681.734 599.15C677.32 589.4 676.274 579.391 678.592 569.124C685.639 557.529 695.064 547.522 706.867 539.099C711.3 533.23 713.92 526.859 714.721 519.991ZM554.498 541.828C574.749 538.127 594.645 540.403 614.189 548.652C627.698 557.655 640.264 567.664 651.888 578.678C633.337 583.654 615.533 581.834 598.481 573.219C585.983 560.048 571.321 549.586 554.498 541.828ZM639.322 610.069C652.982 611.747 665.548 615.842 677.021 622.352C654.364 632.307 632.373 631.395 611.047 619.622C620.981 616.819 630.406 613.634 639.322 610.069Z" stroke="black" stroke-width="2" mask="url(#path-1-inside-1_6_288)"/>
</g>
<defs>
<filter id="filter0_d_6_288" x="-5.5708" y="-1.36481" width="740" height="644" filterUnits="userSpaceOnUse" color-interpolation-filters="sRGB">
<feFlood flood-opacity="0" result="BackgroundImageFix"/>
<feColorMatrix in="SourceAlpha" type="matrix" values="0 0 0 0 0 0 0 0 0 0 0 0 0 0 0 0 0 0 127 0" result="hardAlpha"/>
<feOffset dy="4"/>
<feGaussianBlur stdDeviation="2"/>
<feComposite in2="hardAlpha" operator="out"/>
<feColorMatrix type="matrix" values="0 0 0 0 0 0 0 0 0 0 0 0 0 0 0 0 0 0 0.25 0"/>
<feBlend mode="normal" in2="BackgroundImageFix" result="effect1_dropShadow_6_288"/>
<feBlend mode="normal" in="SourceGraphic" in2="effect1_dropShadow_6_288" result="shape"/>
</filter>
</defs>
</svg>
