<svg xmlns="http://www.w3.org/2000/svg" width="653.333" height="524" version="1.0" viewBox="0 0 490 393"><path d="M181 10.7c-10.5 13.5-15.4 21.1-22.6 34.9-3.2 6-5.9 11.1-6.1 11.4-.7.8-2.1-2.2-2.7-6.1-1.2-7.6-10.7-25.6-12.8-24.3-.6.4-.7 3.9-.2 9.2.6 8.1.6 8.5-1.2 7.7-9.4-3.8-13.8-4.8-22.9-5.3-8.7-.4-19.9.6-27.1 2.4-1.7.4-2.4-.1-3.3-2.6-1.5-4.3-4.2-3.7-5.6 1.3-.9 3.1-1.9 4.2-5.5 5.9-5 2.3-4.1 3.5 1.4 1.9l3.6-.9v9.1c0 6.4-.8 12.4-2.5 19.5-1.7 7-2.5 13.3-2.6 19.5 0 8.9-.1 9.1-1.3 5.2-2.1-6.6-9.5-20.5-11-20.5-1 0-1.5 3.3-2 13.9-1 19.8 1.1 28.2 9.5 38.3 4.4 5.3 4.6 6.6 2 16.3l-1.9 7-1.7-4c-5.3-12.5-10.1-21.3-17.2-32l-8-12.1-.6-9.4c-.9-16.2-2.3-18.5-17.7-29.8-3.5-2.6-7.9-6.6-9.6-8.9L8.2 54l-.8 6.6c-1.9 18.7 1.1 25.7 16 36.8 10.3 7.6 16.4 13.2 15.5 14-.3.3-3.8-.4-7.9-1.4-10.6-2.8-20.5-2.6-29.9.6-3.4 1.1 8.4 9.7 18.6 13.4 8.1 2.9 18.3 2.6 22.9-.7l3.1-2.2 3 3.7c4.4 5.5 9.9 16.8 13.9 28.7 2.7 8 3.6 13 4.4 23.1.6 7.1.8 15.3.4 18.4-1.1 9.1-5.2 18.9-10.3 25-5.6 6.5-16.6 21.4-24.1 32.4-10.8 16.1-20.5 40-23.5 57.6-2 11.9-3.1 44.2-1.7 49 .8 2.8 1 .8 1.1-10.6.1-13.9 1.1-23.1 3.3-28.9.6-1.7 6.3-8.3 12.7-14.8L36.5 293h27.7c27.1 0 27.8 0 27.8-2 0-1.7-.7-2-3.9-2-2.2 0-4.2-.3-4.5-.8-.2-.4 3.2-3 7.7-5.8 4.4-2.7 8.2-5.5 8.5-6.2.3-.9-2.9-1.2-12.7-1.2-8 0-13.1-.4-13.1-1 0-.5 1.2-3.9 2.6-7.5l2.6-6.4 10.6-5.9c5.9-3.3 13.5-7.3 16.8-9l6.2-3.1 14.3 2.9c7.9 1.7 15.5 3 16.9 3s4.9-1.6 7.8-3.6c6.5-4.4 17.2-14.9 17.2-16.9 0-2.3-4.6-2.9-14.5-1.7-17.9 2.2-36.4 9.1-56.2 20.8-5.9 3.5-11.2 6.4-11.7 6.4-.4 0 .9-2.1 3-4.8 14.2-17.6 14.7-18.2 25.6-24.8 5.9-3.5 12.6-8.3 15-10.5l4.2-3.9 29.9.2 29.9.3 2 5.5c14.8 40.3 27.7 73.8 31 80.3 5.8 11.6 13 22.6 22.5 34.3 6.1 7.7 8 10.7 7.6 12.3-.4 1.8-.1 2.1 2.2 2.1 1.8 0 4.7 1.6 8.4 4.6 10.9 9 26.3 15.2 40.1 16.1 9.4.6 32.1-1.2 35.1-2.8 4.1-2.1 2.1-3.6-5.7-4.4-21.6-2-43.6-9.7-53-18.7l-3.1-2.9 7.7-7.8c5.8-5.7 8.7-9.6 11.3-15.2 7-14.4 7-14.3 7.4-75.2l.4-54.7h130l-.3 45.2c-.3 44.7-.3 45.4-2.5 49.5-3.8 7-10.2 10.6-20.8 11.5-1.9.2-3 .9-3 1.8 0 1.3 4.8 1.5 37 1.5 31.2 0 37-.2 37-1.4 0-.9-2.1-1.9-6.1-2.7-9.8-2-15.9-6.2-18.3-12.7-1.3-3.3-1.3-85.6-.1-165.7.8-57.3.7-56.4 8.1-71.7 3.3-6.9 5.1-9.3 12.4-15.9 4.8-4.3 8.2-8.1 7.7-8.6-1.5-1.5-10.2 1.1-18.4 5.4-17.4 9-28.8 25.7-31.8 46.5-.5 3.7-1 29-1 56V171H308v-45.6c0-33.2.3-46.8 1.2-49.8C311.7 67.3 321 61 330.9 61c2.4 0 3.1-.4 3.1-2 0-2-.5-2-36.7-1.8-32.2.3-36.8.5-37.1 1.8-.2 1.2 1.3 1.8 6.4 2.7 8.1 1.4 13.4 4.8 17 10.8l2.6 4.6-.7 103.2c-.4 56.8-1 107.2-1.5 112.2-.5 4.9-1.8 12-3 15.6-2.6 7.8-7.1 17.1-8.5 17.6-1.5.5-12.3-15.4-19.2-28.5-8.8-16.4-14.5-30.4-25.8-62.7-12.6-36.3-27.9-78.3-36-99.1-3.6-9.1-6.5-17.2-6.5-17.9s1.9-3 4.1-5l4.2-3.8 6.1.9c8.8 1.2 20.1 1 27.9-.5 6-1.2 7.9-2.2 17.2-9.3 5.8-4.4 10.5-8.6 10.5-9.3 0-2.2-6.2-2.9-18.9-2.2-14.8.8-21.2 2.5-33.7 9.1l-10.2 5.3 5.4-11.1c4.4-9 5.8-13.2 7.4-22 2.4-12.9 2.3-12.6.8-12.6-.7.1-4.4 5.4-8.2 11.8-16.2 27.4-19.1 32.1-19.6 32.1-.3 0-4.2-7.6-8.8-16.9l-8.3-17 8.3-9.2c12.8-14.2 16.7-19.5 18.3-25.1 2.6-9.2 4.6-32.7 2.7-32.7-.5 0-4.6 4.8-9.2 10.7m6.6 8.3c-1.2 14.7-3 18.1-19.9 37.8-7 8.2-8.2 9.2-9.5 7.9s-.4-3 7-13.9c4.7-6.7 10.1-15 12-18.3 3.7-6.1 10.2-21.4 9.5-22.1-.2-.3-1.9 3.1-3.6 7.3-1.8 4.3-8.5 15.7-14.8 25.3-13.4 20.4-12.1 18.6-13.2 17.4-1.9-1.9 10.4-24.3 21.1-38.6C187.8 6.3 188.7 6 187.6 19m-47 18c-.4-3.1-.2-2.9 2.4 2.5 1.6 3.3 3.2 7.6 3.6 9.5.6 3.4.6 3.4-1.2 1.7-1.1-1-2.5-3.7-3.1-6l-1.3-4.2.6 3.8c.5 3.6.4 3.7-1.5 2.5-1.8-1.1-2.1-2.2-2-8.3l.1-7 1.4 4.5c1.2 4 1.3 4.1 1 1M108 46.6c3 .9 8.2 3 11.5 4.7 6.3 3.4 19.5 15.4 19.5 17.9 0 .8-10.2 26.2-22.7 56.4l-22.8 55.1-11.7 12.4L70 205.5v-16c0-8.8-.5-18.7-1-22.1-.9-5.4-.7-7.1 1.5-14.5 1.4-4.6 3.4-13.7 4.6-20.3 2-11.8 2-12 6.9-17.3 4.5-5 4.9-5.7 5.5-12 .3-3.8 1.3-12.2 2.2-18.7 1.9-14.7 1.3-25.3-2-33.6-1.4-3.3-2.2-6.2-1.8-6.6 1-1 16.2.4 22.1 2.2M81 54c0 4.3-.9 13.8-1.9 21.2-1.1 7.3-2.3 18-2.7 23.8-.7 11.2-1.7 11.2-2.9.3-.6-4.5-.1-9 1.9-18.6 1.4-6.9 2.6-15.4 2.6-18.9 0-8.7 1.1-16.9 2.1-16.2.5.3.9 4 .9 8.4m4.9 0c2.4 8.6 2.8 24.7 1 40.8-1.2 10.9-2.6 14.6-7.1 18.8l-3.1 2.9.7-12c.4-6.6 1.6-18 2.7-25.3 1-7.3 1.9-18.1 1.9-24 0-12.1.9-12.4 3.9-1.2M21.5 70.8c8.4 6.5 10.2 8.4 11.6 12.2 2 5.5 3.4 17 2.1 17-1 0-12.1-12.7-18.5-21.3-2-2.6-4.1-6.6-4.7-8.8s-1.4-4.7-1.7-5.5c-.9-2.5 1-1.4 11.2 6.4m177.9 4.7c-3.5 8.2-14.9 28.3-17.9 31.4-1.2 1.2-1.5 1.1-2-1.1-.5-1.9 1.7-6.1 11.1-21.1 6.5-10.3 11.9-18.5 12.1-18.3s-1.3 4.3-3.3 9.1M23.6 89.7c10.3 11.8 10.4 12 3.5 7.3-6.9-4.8-14.2-12.6-16.6-17.6-.8-1.8-1.5-5.2-1.5-7.6l.1-4.3 3.8 7.2c2.1 4 6.9 10.8 10.7 15M202 77.1c-1.9 6.8-17.3 35.9-19.1 35.9-2.3 0-.9-3.8 4.6-12.3 3.4-5.4 8.2-14 10.6-19.1 2.4-5.2 4.5-9.3 4.7-9.1s-.2 2.2-.8 4.6M65.6 94.5c3.8 8.7 6.4 19.4 6.4 26.4 0 8.1-1.3 6.9-2.9-2.7-.7-4-3.1-13-5.2-20S60 85.3 60 85c0-1.2 3.4 4.6 5.6 9.5m-1.8 9.5c2.7 9.6 5.3 19.7 5.6 22.5l.7 5-3.5-4c-6.9-7.9-8-11.3-8.4-27.5-.2-8-.2-14.3.1-14s2.7 8.4 5.5 18M151 90.7c0 11.1-5.6 30.5-11.7 41.3-2.7 4.6-15 21-15.9 21-.2 0 .2-1.5.9-3.3C143.7 102 149.6 88 150.2 88c.4 0 .8 1.2.8 2.7m93.9 5.5c-3 2.7-8.3 6.3-11.8 8-5.8 2.9-7.3 3.2-18 3.6-6.4.2-14.1 0-17.1-.5l-5.5-.8 3.3-2.4c1.8-1.3 5.1-2.5 7.3-2.8 2.6-.4 3.6-.9 2.8-1.4-1-.6-.5-1.1 1.6-1.9 1.7-.7 5.3-2.1 8-3.2 6-2.4 15.1-3.6 26.4-3.5l8.4.1zM159 111.4c2.3 6.5 3.8 12.1 3.3 12.5-.5.3-3.4 2.5-6.4 4.8-5.1 3.9-12.7 7.9-13.5 7.1-.2-.2 1.7-4.5 4.1-9.5 4.1-8.2 5.2-11.9 7-23.7.4-2.1.8-3.6.9-3.5.2.2 2.2 5.7 4.6 12.3m-123.9.6c1.9.5 4.5 2.1 5.8 3.4l2.2 2.3-5.3-.3c-5.5-.3-5 0 1.5 1.1 4.8.8 4.7 1.9-.3 3.9-8.1 3.2-19.4 1.2-28.4-5.1-3.5-2.4-4.3-3.3-2.6-2.9 11.1 2.8 16.1 3.5 20.1 2.7 4.3-.9 4.3-.9-2.2-1-5.7-.1-14.1-1.8-18.9-3.8-4.9-2.1 20.7-2.4 28.1-.3m141.7 49.3c6.7 18.8 12.2 34.5 12.2 34.9 0 .5-10.7.8-23.8.8h-23.8l.7-6.3c.4-3.4.4-6.6-.1-7.1-1-1-5.9 2.4-13.1 9.2l-4.7 4.3-9.5-.3-9.6-.3 6.3-15.2c5.4-13.3 7-16.2 12.2-22 3.3-3.8 8.1-9.4 10.8-12.5 3.5-4.3 7-7 13.4-10.4 4.8-2.6 10.3-5.8 12.2-7.1 1.9-1.2 3.7-2.3 4-2.3s6 15.4 12.8 34.3m-87.3 28.9c-.7 1.8-8.4 20.4-17 41.2-8.6 20.9-16.9 39.8-18.5 42.1-6.1 8.9-14.7 14.2-24.6 15.2-4.3.5-5.4.9-5.2 2.2.2.9 1.7 1.8 3.5 2.1l3.1.5-9.4 10.8c-5.2 5.9-9.4 10.4-9.4 9.8 0-2.4 6.1-24.6 8.9-32.2 4.4-11.9 9.8-21.1 23.2-39 16-21.4 44.7-55.9 46.4-55.9.2 0-.2 1.5-1 3.2m50.5.2c0 2.5-2.6 6.6-4.1 6.6-2.4 0-2.4-.6.4-4 1.9-2.5 3.7-3.8 3.7-2.6m-6.2 3.5c-1.3 1.7-3.2 3-4.3 3-1.6 0-1.4-.5 1.5-2.9 4.5-3.8 5.8-3.8 2.8-.1m-20.1 16.5c-.5 1.4-12.2 18.2-13.9 20.1-.5.5-.4-.3.1-1.8.6-1.6 1.1-6.3 1.1-10.6s.3-8.1.7-8.4c.3-.4 3.3-.7 6.6-.7 4.6 0 5.8.3 5.4 1.4m6.3-.5c0 1-7.6 8.1-8.7 8.1-.6 0 .6-1.5 5.1-6.8 2-2.3 3.6-2.9 3.6-1.3m9-.4c0 .7-15.6 12.2-18.4 13.7-1.2.5 1.3-2.4 5.4-6.6 5.7-5.8 8.1-7.6 10.2-7.6 1.6 0 2.8.2 2.8.5m-31 15.8c-2 6.4-7.5 18.7-8.4 18.7-1.4 0 3.7-17 7.7-26 1.8-3.9 2.1-4.2 2.5-2.2.2 1.3-.6 5.5-1.8 9.5m67 2.1c0 .3-4.6 2.2-10.2 4.4-7.7 3.1-13.9 4.6-24.6 6.2-7.9 1.2-14.6 2-14.8 1.7-.8-.7 13.4-6.6 21-8.7 10.5-2.9 28.6-5.2 28.6-3.6m-7.2 9.1c-7.8 7.4-12 9-21.4 8.2-7.7-.7-19.6-2.8-19.1-3.3.2-.2 6.4-1.3 13.8-2.3 9.2-1.3 16.4-3 22.9-5.4 5.2-1.9 9.7-3.5 10-3.6.3 0-2.5 2.9-6.2 6.4m-73.9 16.4c-1.2 1.7-2.4 2.9-2.6 2.7-.2-.1.7-2.7 1.9-5.7 2-4.8 2.3-5.1 2.6-2.7.2 1.6-.6 3.9-1.9 5.7m9.1 25.8c0 .1-2.7 2.1-6.1 4.4-5.8 3.9-6.1 4-8 2.3-2.4-2.2-1.7-2.9 5.1-4.8 5.1-1.5 4.3-1.5-5.2.1-3.2.5-3.8.3-3.8-1.2s1.1-1.6 9-1.3c5 .1 9 .4 9 .5"/><path d="M233.5 95.1c-6.9 2-8.6 2.8-5.5 2.4 4.9-.5 20.8-5.3 17.5-5.3-1.1 0-6.5 1.4-12 2.9M218.3 98.7c.9.2 2.5.2 3.5 0 .9-.3.1-.5-1.8-.5s-2.7.2-1.7.5M209.8 99.7c1.2.2 3 .2 4 0 .9-.3-.1-.5-2.3-.4-2.2 0-3 .2-1.7.4"/></svg>